<svg xmlns="http://www.w3.org/2000/svg" width="32" height="34" viewBox="0 0 32 34">
    <path fill="none" fill-rule="evenodd" stroke="#34517F"
          d="M7 18.234V12h18v13.617c0 .766-.295 1.149-.884 1.149h-2.25v4.265c0 .547-.187 1.012-.562 1.395a1.84 1.84 0 0 1-1.366.574h-.08c-.376 0-.75-.137-1.126-.41-.482-.383-.723-.902-.723-1.559v-4.265H14.07v4.265c0 .547-.187 1.012-.562 1.395a1.84 1.84 0 0 1-1.366.574 1.84 1.84 0 0 1-1.366-.574 1.919 1.919 0 0 1-.563-1.395v-4.265h-2.33c-.59 0-.884-.383-.884-1.149v-7.383zm20.583-7.65A1.929 1.929 0 0 1 29 10c.556 0 1.028.194 1.417.583.389.39.583.861.583 1.417v8c0 .556-.194 1.028-.583 1.417A1.929 1.929 0 0 1 29 22a1.929 1.929 0 0 1-1.417-.583A1.929 1.929 0 0 1 27 20v-8c0-.556.194-1.028.583-1.417zm-26 0A1.929 1.929 0 0 1 3 10c.556 0 1.028.194 1.417.583.389.39.583.861.583 1.417v8c0 .556-.194 1.028-.583 1.417A1.929 1.929 0 0 1 3 22a1.929 1.929 0 0 1-1.417-.583A1.929 1.929 0 0 1 1 20v-8c0-.556.194-1.028.583-1.417zM20.42 3.008a6.847 6.847 0 0 1 2.852 2.37c.724 1.045 1.179 1.916 1.366 2.612.188.697.308 1.366.362 2.009H7c.214-3.429 1.714-5.759 4.5-6.991L10.054 1.24c0-.054.026-.107.08-.16L10.375 1l1.527 1.848A12.015 12.015 0 0 1 16 2.125c1.34 0 2.679.241 4.018.723L21.625 1c.054 0 .107.027.16.08l.161.161L20.42 3.01zM12.037 7c.642 0 .963-.321.963-.963 0-.247-.099-.481-.296-.704-.198-.222-.42-.333-.667-.333a.95.95 0 0 0-.74.333c-.198.223-.297.457-.297.704 0 .247.111.47.333.667.223.197.457.296.704.296zm7.926 0c.247 0 .481-.099.704-.296.222-.198.333-.42.333-.667 0-.247-.111-.481-.333-.704-.223-.222-.457-.333-.704-.333-.642 0-.963.346-.963 1.037 0 .642.321.963.963.963z"/>
</svg>
