<svg xmlns="http://www.w3.org/2000/svg" width="28" height="28" viewBox="0 0 28 28">
    <path fill="#000" fill-rule="evenodd"
          d="M26.801 20.364c1.599 1.59 1.599 3.34 0 5.25-.639.742-1.265 1.299-1.877 1.67-.613.371-1.119.583-1.518.636-.4.053-.973.08-1.718.08-2.078 0-4.555-1.06-7.431-3.182a46.928 46.928 0 0 1-6.233-5.33c-2.397-2.492-4.5-5.329-6.312-8.51C.114 8.007-.365 5.567.274 3.658c.32-1.007 1.065-1.882 2.237-2.625l.08-.08C3.55.319 4.402 0 5.148 0 6.16 0 7.066.477 7.865 1.432l.08.08C9.17 3.101 10.022 4.347 10.5 5.25c.8 1.644.773 3.05-.08 4.216-.639.848-.958 1.458-.958 1.83 0 .159.346.636 1.038 1.431l.08.08c1.279 1.432 1.971 2.2 2.078 2.307.053 0 .106.026.16.08l.16.158.16.16c1.065 1.06 1.837 1.802 2.316 2.227l.08.08c.48.423.8.636.96.636.265 0 1.038-.398 2.316-1.194.373-.265.826-.397 1.359-.397.958 0 2.117.397 3.475 1.193 1.359.795 2.41 1.564 3.156 2.307zm-.782 3.677c.704-.94 1.03-1.607.975-1.999-.054-.392-.352-.849-.894-1.371-.596-.627-1.518-1.293-2.765-1.999-1.246-.705-2.276-1.058-3.09-1.058-.216 0-.433.053-.65.157-1.572.94-2.575 1.41-3.008 1.41-.434 0-1.057-.339-1.87-1.018h-.082c-.975-.784-1.788-1.541-2.439-2.273l-.162-.156a2.416 2.416 0 0 0-.326-.236c-.162-.156-.894-.94-2.195-2.35v-.079c-.921-.993-1.41-1.724-1.463-2.194-.055-.627.379-1.516 1.3-2.665.922-1.15.082-3.213-2.52-6.191l-.081-.079C6.207 1.313 5.61 1 4.959 1c-.433 0-1.056.235-1.87.705l-.162.079c-.867.522-1.436 1.15-1.707 1.88-.542 1.568-.082 3.632 1.382 6.192 1.735 3.082 3.794 5.8 6.18 8.15 1.68 1.672 3.74 3.344 6.179 5.016C17.834 25.007 20.11 26 21.79 26c.975 0 1.734-.104 2.276-.313.542-.21 1.193-.758 1.952-1.646z"/>
</svg>
