<svg xmlns="http://www.w3.org/2000/svg" width="119" height="119" viewBox="0 0 119 119">
    <path fill="#FFF" fill-rule="evenodd"
          d="M16.677 38.215c0-12.7 10.295-22.994 22.994-22.994 12.7 0 22.994 10.295 22.994 22.994S52.37 61.209 39.67 61.209c-12.7 0-22.994-10.295-22.994-22.994zM107.107 0L79.01 28.097 54.427 3.231A10.892 10.892 0 0 0 43.906.412l-27.59 7.392a10.892 10.892 0 0 0-7.7 7.702l-7.393 27.59a10.892 10.892 0 0 0 2.819 10.52l24.643 24.643L.73 106.377l.033 11.893H104c8.284 0 15-6.716 15-15V.033L107.107 0z"/>
</svg>
