<?xml version="1.0" encoding="UTF-8"?>
<svg xmlns:xlink="http://www.w3.org/1999/xlink" width="262px" height="419px" viewBox="0 0 262 419" version="1.1"
     xmlns="http://www.w3.org/2000/svg">
    <!-- Generator: sketchtool 52.6 (67491) - http://www.bohemiancoding.com/sketch -->
    <title>C920CE71-A439-46ED-8584-3B1DB9650A22</title>
    <desc>Created with sketchtool.</desc>
    <defs>
        <polygon id="path-1" points="0 419 263 419 263 0 0 0"></polygon>
    </defs>
    <g id="Page-1" stroke="none" stroke-width="1" fill="none" fill-rule="evenodd">
        <g id="главная-copy" transform="translate(-184.000000, -183.000000)">
            <g id="Page-1" transform="translate(184.000000, 183.000000)">
                <path d="M65.0138709,282 C68.8210863,282 72.5192997,282.839211 75.7279859,284.466456 L75.7279859,288.875748 C72.9543259,287.091181 69.3646235,286.198424 65.7754122,286.198424 C57.8894582,286.198424 49.6774802,290.765039 49.6229792,301.262046 C49.5684781,311.077165 58.0524703,315.801102 65.9384242,315.801102 C69.8541507,315.801102 73.389352,314.908819 76,313.124726 L76,317.533071 C72.8453238,319.10819 69.0385994,320 64.9598609,320 C55.3878123,320 44.9457114,313.491969 45.0002124,301.262046 C45.0547135,288.508031 55.1157982,282 65.0138709,282"
                      id="Fill-1" fill="#FFFFFF"></path>
                <polygon id="Fill-3" fill="#FFFFFF"
                         points="92.3139098 321 92.3139098 306.992455 78 284 82.8406955 284 94.5 303.028749 106.159305 284 111 284 96.6860902 306.992455 96.6860902 321"></polygon>
                <path d="M133.784954,303.979828 L122.405015,303.979828 L122.405015,316.771442 L132.578593,316.771442 C137.193349,316.771442 142.542905,316.454575 142.542905,310.375397 C142.542905,304.61404 137.298456,303.979828 133.784954,303.979828 Z M132.6837,288.228081 L122.405015,288.228081 L122.405015,299.75127 L133.889587,299.75127 C137.717936,299.75127 141.074251,298.218472 141.074251,293.989437 C141.074251,289.602445 137.875122,288.228081 132.6837,288.228081 Z M133.050627,284 C140.549664,284 145.531819,287.118567 145.531819,293.355225 C145.531819,298.060038 142.542905,300.702827 139.65815,301.548443 C142.700091,302.394059 147,304.825444 147,310.851175 C147,319.255797 138.81919,321 133.470107,321 L118,321 L118,284 L133.050627,284 Z"
                      id="Fill-5" fill="#FFFFFF"></path>
                <polygon id="Fill-7" fill="#FFFFFF"
                         points="178.685995 284 178.685995 288.228081 158.392766 288.228081 158.392766 300.227049 177.116914 300.227049 177.116914 304.455607 158.392766 304.455607 158.392766 316.771442 179 316.771442 179 321 154 321 154 284"></polygon>
                <path d="M191.443582,302.182898 L201.70623,302.182898 C206.149812,302.182898 210.857984,300.702612 210.857984,295.205701 C210.857984,289.65582 206.149812,288.228503 201.70623,288.228503 L191.443582,288.228503 L191.443582,302.182898 Z M187,321 L187,284 L201.494654,284 C208.160026,284 215.354579,286.748694 215.354579,295.205701 C215.354579,302.024466 210.699421,305.090024 205.462547,306.041568 L218,321 L212.445045,321 L200.330745,306.411401 L191.443582,306.411401 L191.443582,321 L187,321 Z"
                      id="Fill-9" fill="#FFFFFF"></path>
                <polygon id="Fill-11" fill="#FFFFFF"
                         points="25 335 25 339.228081 4.43030742 339.228081 4.43030742 351.967201 23.4705345 351.967201 23.4705345 356.195759 4.43030742 356.195759 4.43030742 372 0 372 0 335"></polygon>
                <path d="M48.5,339.198424 C38.37722,339.198424 33.5286754,346.441889 33.5286754,353.999526 C33.5286754,361.558111 38.37722,368.801102 48.5,368.801102 C58.62278,368.801102 63.4713246,361.558111 63.4713246,353.999526 C63.4713246,346.441889 58.62278,339.198424 48.5,339.198424 M48.5,335 C61.553071,335 68,344.5 68,353.999526 C68,363.5 61.553071,373 48.5,373 C35.446929,373 29,363.5 29,353.999526 C29,344.5 35.446929,335 48.5,335"
                      id="Fill-13" fill="#FFFFFF"></path>
                <path d="M80.4436501,353.182898 L90.7064569,353.182898 C95.1501071,353.182898 99.8583512,351.702612 99.8583512,346.205701 C99.8583512,340.65582 95.1501071,339.228503 90.7064569,339.228503 L80.4436501,339.228503 L80.4436501,353.182898 Z M76,372 L76,335 L90.4948773,335 C97.1603525,335 104.355016,337.748694 104.355016,346.205701 C104.355016,353.024466 99.6997858,356.090024 94.4623538,357.041568 L107,372 L101.445437,372 L89.3309504,357.411401 L80.4436501,357.411401 L80.4436501,372 L76,372 Z"
                      id="Fill-15" fill="#FFFFFF"></path>
                <polygon id="Fill-17" fill="#FFFFFF"
                         points="137.685995 335 137.685995 339.228081 117.393238 339.228081 117.393238 351.227049 136.116914 351.227049 136.116914 355.455607 117.393238 355.455607 117.393238 367.771442 138 367.771442 138 372 113 372 113 335"></polygon>
                <polygon id="Fill-19" fill="#FFFFFF"
                         points="184 335 184 372 179.462655 372 179.462655 343.404145 165.904265 363.27851 163.095247 363.27851 149.537345 343.404145 149.537345 372 145 372 145 335 148.888735 335 164.499756 357.834498 180.110778 335"></polygon>
                <path d="M199.330307,358.944489 L215.722513,358.944489 L208.079828,340.97276 C207.869025,340.497459 207.710565,340.074174 207.499762,339.545902 C207.289435,340.074174 207.130975,340.497459 206.920172,340.97276 L199.330307,358.944489 Z M189,372 L205.075288,335 L209.977532,335 L226,372 L221.256691,372 L217.461758,363.067583 L197.591062,363.067583 L193.796129,372 L189,372 Z"
                      id="Fill-21" fill="#FFFFFF"></path>
                <polygon id="Fill-23" fill="#FFFFFF"
                         points="231 372 231 335 235.147255 335 257.533504 364.547411 257.533504 361.375397 257.533504 335 262 335 262 372 257.852745 372 235.466496 342.400095 235.466496 345.571156 235.466496 372"></polygon>
                <path d="M30.5394145,401.974671 C28.0966854,401.974671 26.2057587,403.631488 25.470667,405.555501 L25.470667,409.02955 C26.2057587,410.953564 28.0966854,412.61038 30.5394145,412.61038 C33.3230907,412.61038 35.5032179,410.579587 35.5032179,407.293018 C35.5032179,403.978893 33.3230907,401.974671 30.5394145,401.974671 Z M25.4967821,395 L25.4967821,403.364291 C26.4422455,401.894955 28.202113,400.585543 30.7231874,400.585543 C34.3212678,400.585543 37,403.338211 37,407.293018 C37,411.247825 34.3212678,414 30.7231874,414 C28.202113,414 26.4422455,412.690588 25.3391243,411.060836 L25.3391243,413.706231 L24,413.706231 L24,395 L25.4967821,395 Z"
                      id="Fill-25" fill="#FFFFFF"></path>
                <path d="M50.4494802,400 L52,400 L45.7198711,414.937921 C44.4534705,417.904641 43.0062235,419 41.2743813,419 C40.835115,419 40.4215478,418.946856 39.9565822,418.839584 L39.9565822,417.5036 C40.3439742,417.61038 40.7318421,417.663524 41.0935349,417.663524 C42.5669571,417.663524 43.600637,416.621802 44.4791697,414.376955 L45.0997584,412.880555 L39,400 L40.5509958,400 L45.8231439,411.143531 L50.4494802,400 Z"
                      id="Fill-27" fill="#FFFFFF"></path>
                <polygon id="Fill-29" fill="#FFFFFF"
                         points="60 414 60 395 61.5802973 395 61.5802973 403.523136 66.4819808 403.523136 72.5358411 395 74.3568328 395 67.7944561 404.255846 75 414 73.1518808 414 66.5357425 405.043036 61.5802973 405.043036 61.5802973 414"></polygon>
                <path d="M87,400 L87,412.708457 L85.6758738,412.708457 L85.6758738,410.431689 C84.8609548,411.623214 83.1804774,413 80.9396846,413 C77.9608696,413 76,410.987474 76,407.837052 L76,400 L77.4511935,400 L77.4511935,407.651791 C77.4511935,410.272755 78.8517477,411.623214 81.0925405,411.623214 C83.2315857,411.623214 84.7338875,410.11382 85.5488065,408.710707 L85.5488065,400 L87,400 Z"
                      id="Fill-31" fill="#FFFFFF"></path>
                <path d="M99,400.00834 L99,401.519884 C96.205489,401.307506 94.1823847,403.030939 93.5173283,405.231368 L93.5173283,413 L92,413 L92,400.273446 L93.3575579,400.273446 L93.3575579,403.216465 C94.289225,401.334358 96.4716096,399.876031 99,400.00834"
                      id="Fill-33" fill="#FFFFFF"></path>
                <path d="M107.539414,401.974671 C105.096685,401.974671 103.205759,403.631488 102.470667,405.555501 L102.470667,409.02955 C103.205759,410.953564 105.096685,412.61038 107.539414,412.61038 C110.323091,412.61038 112.503218,410.579587 112.503218,407.293018 C112.503218,403.978893 110.323091,401.974671 107.539414,401.974671 Z M102.496782,395 L102.496782,403.364291 C103.442245,401.894955 105.202113,400.585543 107.723187,400.585543 C111.321268,400.585543 114,403.338211 114,407.293018 C114,411.247825 111.321268,414 107.723187,414 C105.202113,414 103.442245,412.690588 102.339124,411.060836 L102.339124,413.706231 L101,413.706231 L101,395 L102.496782,395 Z"
                      id="Fill-35" fill="#FFFFFF"></path>
                <mask id="mask-2" fill="white">
                    <use xlink:href="#path-1"></use>
                </mask>
                <g id="Clip-38"></g>
                <path d="M117.428981,412 L119.649211,412 L119.649211,399.710724 L117.428981,399.710724 L117.428981,412 Z M118.519369,396.945672 C117.701578,396.945672 117,396.638287 117,395.973072 C117,395.358302 117.701578,395 118.519369,395 C119.298422,395 120,395.358302 120,395.973072 C120,396.638287 119.298422,396.945672 118.519369,396.945672 Z"
                      id="Fill-37" fill="#FFFFFF" mask="url(#mask-2)"></path>
                <polygon id="Fill-39" fill="#FFFFFF" mask="url(#mask-2)"
                         points="131.274194 414 126.250474 408.055846 123.468216 408.055846 123.468216 414 122 414 122 395 123.468216 395 123.468216 406.617414 126.327799 406.617414 130.656072 400.971643 132.356262 400.971643 127.487192 407.377114 133 414"></polygon>
                <path d="M146,400 L146,412.708457 L144.675874,412.708457 L144.675874,410.431689 C143.860955,411.623214 142.180477,413 139.939685,413 C136.96087,413 135,410.987474 135,407.837052 L135,400 L136.451194,400 L136.451194,407.651791 C136.451194,410.272755 137.851748,411.623214 140.09254,411.623214 C142.231586,411.623214 143.733887,410.11382 144.548806,408.710707 L144.548806,400 L146,400 Z"
                      id="Fill-40" fill="#FFFFFF" mask="url(#mask-2)"></path>
                <path d="M154.247876,400 C155.759735,400 157.223864,400.440136 158.255782,401.061954 L158.255782,402.460091 C157.319764,401.812523 155.73587,401.320886 154.343776,401.320886 C152.903953,401.320886 151.392094,401.89025 151.392094,403.366591 C151.392094,406.629227 159,405.127137 159,409.632932 C159,412.093023 156.815959,413 154.440118,413 C152.831918,413 151.055782,412.533637 150,411.782591 L150,410.332477 C151.152124,411.160773 152.903953,411.652887 154.368082,411.652887 C156.144218,411.652887 157.63177,411.160773 157.63177,409.685386 C157.63177,406.473773 150.023864,407.923887 150.023864,403.392341 C150.023864,400.958 152.184041,400 154.247876,400"
                      id="Fill-41" fill="#FFFFFF" mask="url(#mask-2)"></path>
                <path d="M175.460586,401.974671 C172.676909,401.974671 170.496782,403.978893 170.496782,407.293018 C170.496782,410.579587 172.676909,412.61038 175.460586,412.61038 C177.903315,412.61038 179.794241,410.953564 180.529333,409.02955 L180.529333,405.555501 C179.794241,403.631488 177.903315,401.974671 175.460586,401.974671 Z M182,395 L182,413.706231 L180.660876,413.706231 L180.660876,411.060836 C179.58387,412.690588 177.798371,414 175.276813,414 C171.704847,414 169,411.247825 169,407.293018 C169,403.338211 171.704847,400.585543 175.276813,400.585543 C177.798371,400.585543 179.58387,401.894955 180.529333,403.364291 L180.529333,395 L182,395 Z"
                      id="Fill-42" fill="#FFFFFF" mask="url(#mask-2)"></path>
                <path d="M186.428264,412 L188.649211,412 L188.649211,399.710724 L186.428264,399.710724 L186.428264,412 Z M187.518651,396.945672 C186.701578,396.945672 186,396.638287 186,395.973072 C186,395.358302 186.701578,395 187.518651,395 C188.298422,395 189,395.358302 189,395.973072 C189,396.638287 188.298422,396.945672 187.518651,396.945672 Z"
                      id="Fill-43" fill="#FFFFFF" mask="url(#mask-2)"></path>
                <path d="M197.460586,401.367977 C194.676909,401.367977 192.496782,403.341682 192.496782,406.605346 C192.496782,409.841873 194.676909,411.841746 197.460586,411.841746 C199.903315,411.841746 201.794241,410.289143 202.529333,408.500064 L202.529333,404.894284 C201.794241,402.999566 199.903315,401.367977 197.460586,401.367977 M197.276813,400 C199.798371,400 201.58387,401.289474 202.660876,402.894412 L202.660876,400.288811 L204,400.288811 L204,412.920911 C204,417.236604 200.69112,419 197.250214,419 C195.412485,419 193.704847,418.578898 192.208065,417.815195 L192.208065,416.368232 C193.704847,417.184269 195.333656,417.631539 197.066925,417.631539 C199.92943,417.631539 202.529333,416.368232 202.529333,412.920911 L202.529333,410.420949 C201.58387,411.920732 199.798371,413.210207 197.276813,413.210207 C193.704847,413.210207 191,410.499936 191,406.605346 C191,402.710755 193.704847,400 197.276813,400"
                      id="Fill-44" fill="#FFFFFF" mask="url(#mask-2)"></path>
                <path d="M207.428264,412 L209.649211,412 L209.649211,399.710724 L207.428264,399.710724 L207.428264,412 Z M208.518651,396.945672 C207.701578,396.945672 207,396.638287 207,395.973072 C207,395.358302 207.701578,395 208.518651,395 C209.298422,395 210,395.358302 210,395.973072 C210,396.638287 209.298422,396.945672 208.518651,396.945672 Z"
                      id="Fill-45" fill="#FFFFFF" mask="url(#mask-2)"></path>
                <path d="M214.630125,396 L214.630125,400.340274 L219.627327,400.340274 L219.627327,401.70996 L214.630125,401.70996 L214.630125,408.892368 C214.630125,410.856267 215.525181,411.630789 217.38946,411.630789 C218.359599,411.630789 219.254655,411.398147 220,411.062267 L220,412.405787 C219.204751,412.767834 218.135721,413 217.016787,413 C214.729474,413 213.237868,411.708813 213.237868,409.150701 L213.237868,401.70996 L211,401.70996 L211,400.340274 L213.237868,400.340274 L213.237868,396.387261 L214.630125,396 Z"
                      id="Fill-46" fill="#FFFFFF" mask="url(#mask-2)"></path>
                <path d="M227.636998,411.731091 C229.512713,411.731091 231.336618,410.876568 232.45677,409.297227 L232.45677,407.017864 C231.363002,406.733182 229.981881,406.5 228.731245,406.5 C226.673235,406.5 224.510646,407.173318 224.510646,409.244773 C224.510646,410.954295 226.047677,411.731091 227.636998,411.731091 M235.035758,411.549886 C235.374442,411.549886 235.687221,411.472159 236,411.368205 L236,412.559387 C235.582641,412.714841 235.113953,412.818319 234.644784,412.818319 C233.576922,412.818319 232.613159,412.300455 232.483154,410.902318 C231.232038,412.248955 229.434518,413 227.350603,413 C225.162589,413 223,411.860318 223,409.3225 C223,406.241068 225.865862,405.257318 228.523045,405.257318 C229.851397,405.257318 231.258423,405.463796 232.45677,405.800455 L232.45677,404.972159 C232.45677,402.797227 231.049744,401.346636 228.470755,401.346636 C226.568656,401.346636 225.031625,401.786773 223.989668,402.226909 L223.989668,400.776796 C224.95391,400.440136 226.59504,400 228.627145,400 C231.935791,400 233.915606,401.83875 233.915606,405.153364 L233.915606,410.462182 C233.915606,411.290478 234.436584,411.549886 235.035758,411.549886"
                      id="Fill-47" fill="#FFFFFF" mask="url(#mask-2)"></path>
                <polygon id="Fill-48" fill="#FFFFFF" mask="url(#mask-2)"
                         points="238 413 239 413 239 394 238 394"></polygon>
                <path d="M85.6631081,76.5504714 L120.486659,40.5735421 L120.486659,150.982341 L86.3805292,159.610575 L85.6631081,159.791717 L85.6631081,76.5504714 Z M208,132.121469 L197.261299,134.930617 C195.720119,135.333635 194.079818,134.887008 192.958697,133.75942 L164.030894,104.661116 C162.909773,103.533528 162.477685,101.896056 162.897744,100.36497 L174.200374,59.1742016 L132.114558,0 L77.9480649,67.6490866 L77.9480649,161.740677 L53,168.044247 L53,214.789576 L78.8478486,226.091819 L78.8478486,185.246084 L93.8410346,184.324557 L93.8410346,232.647455 L138.101247,252 L192.626691,221.695038 L192.626691,162.18347 L208,166.516516 L208,132.121469 Z"
                      id="Fill-49" fill="#FFFFFF" mask="url(#mask-2)"></path>
                <path d="M219.154731,103.027928 C212.497089,109.634858 201.756099,109.581115 195.164526,102.908448 C188.572474,96.2357805 188.625617,85.47055 195.283259,78.8641006 C201.940901,72.2571713 212.68189,72.3109135 219.273942,78.9835809 C225.865515,85.6562484 225.812373,96.4209991 219.154731,103.027928 M234.71588,81.4053379 L216.848063,63.3186951 C215.732551,62.1891496 214.100936,61.7424177 212.567466,62.1459639 L188.005143,68.6113402 C186.471674,69.0148863 185.269506,70.2082507 184.851549,71.7408625 L178.157042,96.2928815 C177.739084,97.8259732 178.169011,99.4655895 179.284523,100.595135 L197.152339,118.681778 C198.267851,119.810843 199.899466,120.257575 201.432936,119.854029 L225.995259,113.388653 C227.528729,112.985107 228.730896,111.792222 229.148854,110.259131 L235.842882,85.7071116 C236.26084,84.1740199 235.831392,82.5344036 234.71588,81.4053379"
                      id="Fill-50" fill="#FFFFFF" mask="url(#mask-2)"></path>
            </g>
        </g>
    </g>
</svg>
