<?xml version="1.0" encoding="UTF-8"?>
<svg xmlns:xlink="http://www.w3.org/1999/xlink" width="262px" height="420px" viewBox="0 0 262 420" version="1.1"
     xmlns="http://www.w3.org/2000/svg">
    <!-- Generator: Sketch 52.6 (67491) - http://www.bohemiancoding.com/sketch -->
    <title>Page 1</title>
    <desc>Created with Sketch.</desc>
    <g id="Page-1" stroke="none" stroke-width="1" fill="none" fill-rule="evenodd">
        <g id="главная-copy" transform="translate(-184.000000, -183.000000)">
            <g id="Page-1" transform="translate(184.000000, 183.000000)">
                <path d="M74.7367605,285.466456 L74.7367605,289.875748 C72.0525734,288.091181 68.5786679,287.198424 65.1052376,287.198424 C57.4736693,287.198424 49.5265937,291.765039 49.4738508,302.262046 C49.4211079,312.077165 57.6314229,316.801102 65.2629912,316.801102 C69.0524039,316.801102 72.4735665,315.908819 75,314.124726 L75,318.533071 C71.9470876,320.10819 68.2631607,321 64.3159944,321 C55.0527216,321 44.9474627,314.491969 45.0002056,302.262046 C45.0529485,289.508031 54.7894821,283 64.3682622,283 C68.0526642,283 71.6315804,283.839211 74.7367605,285.466456 Z"
                      id="Fill-1" fill="#FFFFFF"></path>
                <polygon id="Fill-3" fill="#FFFFFF"
                         points="92.3139098 321 92.3139098 306.992455 78 284 82.8406955 284 94.5 303.028749 106.159305 284 111 284 96.6860902 306.992455 96.6860902 321"></polygon>
                <path d="M133.784954,303.979828 L122.405015,303.979828 L122.405015,316.771442 L132.578593,316.771442 C137.193349,316.771442 142.542905,316.454575 142.542905,310.375397 C142.542905,304.61404 137.298456,303.979828 133.784954,303.979828 Z M132.6837,288.228081 L122.405015,288.228081 L122.405015,299.75127 L133.889587,299.75127 C137.717936,299.75127 141.074251,298.218472 141.074251,293.989437 C141.074251,289.602445 137.875122,288.228081 132.6837,288.228081 Z M133.050627,284 C140.549664,284 145.531819,287.118567 145.531819,293.355225 C145.531819,298.060038 142.542905,300.702827 139.65815,301.548443 C142.700091,302.394059 147,304.825444 147,310.851175 C147,319.255797 138.81919,321 133.470107,321 L118,321 L118,284 L133.050627,284 Z"
                      id="Fill-5" fill="#FFFFFF"></path>
                <polygon id="Fill-7" fill="#FFFFFF"
                         points="178.685995 284 178.685995 288.228081 158.392766 288.228081 158.392766 300.227049 177.116914 300.227049 177.116914 304.455607 158.392766 304.455607 158.392766 316.771442 179 316.771442 179 321 154 321 154 284"></polygon>
                <path d="M191.443582,302.182898 L201.70623,302.182898 C206.149812,302.182898 210.857984,300.702612 210.857984,295.205701 C210.857984,289.65582 206.149812,288.228503 201.70623,288.228503 L191.443582,288.228503 L191.443582,302.182898 Z M187,321 L187,284 L201.494654,284 C208.160026,284 215.354579,286.748694 215.354579,295.205701 C215.354579,302.024466 210.699421,305.090024 205.462547,306.041568 L218,321 L212.445045,321 L200.330745,306.411401 L191.443582,306.411401 L191.443582,321 L187,321 Z"
                      id="Fill-9" fill="#FFFFFF"></path>
                <polygon id="Fill-11" fill="#FFFFFF"
                         points="25 335 25 339.228081 4.43030742 339.228081 4.43030742 351.967201 23.4705345 351.967201 23.4705345 356.195759 4.43030742 356.195759 4.43030742 372 0 372 0 335"></polygon>
                <path d="M48.5,339.198424 C38.37722,339.198424 33.5286754,346.441889 33.5286754,353.999526 C33.5286754,361.558111 38.37722,368.801102 48.5,368.801102 C58.62278,368.801102 63.4713246,361.558111 63.4713246,353.999526 C63.4713246,346.441889 58.62278,339.198424 48.5,339.198424 M48.5,335 C61.553071,335 68,344.5 68,353.999526 C68,363.5 61.553071,373 48.5,373 C35.446929,373 29,363.5 29,353.999526 C29,344.5 35.446929,335 48.5,335"
                      id="Fill-13" fill="#FFFFFF"></path>
                <path d="M80.4436501,353.182898 L90.7064569,353.182898 C95.1501071,353.182898 99.8583512,351.702612 99.8583512,346.205701 C99.8583512,340.65582 95.1501071,339.228503 90.7064569,339.228503 L80.4436501,339.228503 L80.4436501,353.182898 Z M76,372 L76,335 L90.4948773,335 C97.1603525,335 104.355016,337.748694 104.355016,346.205701 C104.355016,353.024466 99.6997858,356.090024 94.4623538,357.041568 L107,372 L101.445437,372 L89.3309504,357.411401 L80.4436501,357.411401 L80.4436501,372 L76,372 Z"
                      id="Fill-15" fill="#FFFFFF"></path>
                <polygon id="Fill-17" fill="#FFFFFF"
                         points="137.685995 335 137.685995 339.228081 117.393238 339.228081 117.393238 351.227049 136.116914 351.227049 136.116914 355.455607 117.393238 355.455607 117.393238 367.771442 138 367.771442 138 372 113 372 113 335"></polygon>
                <polygon id="Fill-19" fill="#FFFFFF"
                         points="184 335 184 372 179.462655 372 179.462655 343.404145 165.904265 363.27851 163.095247 363.27851 149.537345 343.404145 149.537345 372 145 372 145 335 148.888735 335 164.499756 357.834498 180.110778 335"></polygon>
                <path d="M199.330307,358.944489 L215.722513,358.944489 L208.079828,340.97276 C207.869025,340.497459 207.710565,340.074174 207.499762,339.545902 C207.289435,340.074174 207.130975,340.497459 206.920172,340.97276 L199.330307,358.944489 Z M189,372 L205.075288,335 L209.977532,335 L226,372 L221.256691,372 L217.461758,363.067583 L197.591062,363.067583 L193.796129,372 L189,372 Z"
                      id="Fill-21" fill="#FFFFFF"></path>
                <polygon id="Fill-23" fill="#FFFFFF"
                         points="231 372 231 335 235.147255 335 257.533504 364.547411 257.533504 361.375397 257.533504 335 262 335 262 372 257.852745 372 235.466496 342.400095 235.466496 345.571156 235.466496 372"></polygon>
                <path d="M30.5394145,401.974671 C28.0966854,401.974671 26.2057587,403.631488 25.470667,405.555501 L25.470667,409.02955 C26.2057587,410.953564 28.0966854,412.61038 30.5394145,412.61038 C33.3230907,412.61038 35.5032179,410.579587 35.5032179,407.293018 C35.5032179,403.978893 33.3230907,401.974671 30.5394145,401.974671 Z M25.4967821,395 L25.4967821,403.364291 C26.4422455,401.894955 28.202113,400.585543 30.7231874,400.585543 C34.3212678,400.585543 37,403.338211 37,407.293018 C37,411.247825 34.3212678,414 30.7231874,414 C28.202113,414 26.4422455,412.690588 25.3391243,411.060836 L25.3391243,413.706231 L24,413.706231 L24,395 L25.4967821,395 Z"
                      id="Fill-26" fill="#ECEDEE"></path>
                <path d="M49.4494802,401 L51,401 L44.7198711,415.937921 C43.4534705,418.904641 42.0062235,420 40.2743813,420 C39.835115,420 39.4215478,419.946856 38.9565822,419.839584 L38.9565822,418.5036 C39.3439742,418.61038 39.7318421,418.663524 40.0935349,418.663524 C41.5669571,418.663524 42.600637,417.621802 43.4791697,415.376955 L44.0997584,413.880555 L38,401 L39.5509958,401 L44.8231439,412.143531 L49.4494802,401 Z"
                      id="Fill-28" fill="#ECEDEE"></path>
                <polygon id="Fill-30" fill="#ECEDEE"
                         points="60 414 60 395 61.5802973 395 61.5802973 403.523136 66.4819808 403.523136 72.5358411 395 74.3568328 395 67.7944561 404.255846 75 414 73.1518808 414 66.5357425 405.043036 61.5802973 405.043036 61.5802973 414"></polygon>
                <path d="M88,401 L88,413.708457 L86.5554987,413.708457 L86.5554987,411.431689 C85.6664962,412.623214 83.8332481,414 81.3887468,414 C78.1391304,414 76,411.987474 76,408.837052 L76,401 L77.5831202,401 L77.5831202,408.651791 C77.5831202,411.272755 79.1109974,412.623214 81.5554987,412.623214 C83.8890026,412.623214 85.5278772,411.11382 86.4168798,409.710707 L86.4168798,401 L88,401 Z"
                      id="Fill-32" fill="#ECEDEE"></path>
                <path d="M98,401.00834 L98,402.519884 C95.205489,402.307506 93.1823847,404.030939 92.5173283,406.231368 L92.5173283,414 L91,414 L91,401.273446 L92.3575579,401.273446 L92.3575579,404.216465 C93.289225,402.334358 95.4716096,400.876031 98,401.00834"
                      id="Fill-34" fill="#ECEDEE"></path>
                <path d="M107.539414,401.974671 C105.096685,401.974671 103.205759,403.631488 102.470667,405.555501 L102.470667,409.02955 C103.205759,410.953564 105.096685,412.61038 107.539414,412.61038 C110.323091,412.61038 112.503218,410.579587 112.503218,407.293018 C112.503218,403.978893 110.323091,401.974671 107.539414,401.974671 Z M102.496782,395 L102.496782,403.364291 C103.442245,401.894955 105.202113,400.585543 107.723187,400.585543 C111.321268,400.585543 114,403.338211 114,407.293018 C114,411.247825 111.321268,414 107.723187,414 C105.202113,414 103.442245,412.690588 102.339124,411.060836 L102.339124,413.706231 L101,413.706231 L101,395 L102.496782,395 Z"
                      id="Fill-36" fill="#ECEDEE"></path>
                <path d="M116.285988,414 L117.766141,414 L117.766141,400.987826 L116.285988,400.987826 L116.285988,414 Z M117.012912,398.060124 C116.467719,398.060124 116,397.734657 116,397.030311 C116,396.379378 116.467719,396 117.012912,396 C117.532281,396 118,396.379378 118,397.030311 C118,397.734657 117.532281,398.060124 117.012912,398.060124 Z"
                      id="Fill-38" fill="#ECEDEE"></path>
                <polygon id="Fill-40" fill="#ECEDEE"
                         points="131.274194 414 126.250474 408.055846 123.468216 408.055846 123.468216 414 122 414 122 395 123.468216 395 123.468216 406.617414 126.327799 406.617414 130.656072 400.971643 132.356262 400.971643 127.487192 407.377114 133 414"></polygon>
                <path d="M147,401 L147,413.708457 L145.555499,413.708457 L145.555499,411.431689 C144.666496,412.623214 142.833248,414 140.388747,414 C137.13913,414 135,411.987474 135,408.837052 L135,401 L136.58312,401 L136.58312,408.651791 C136.58312,411.272755 138.110997,412.623214 140.555499,412.623214 C142.889003,412.623214 144.527877,411.11382 145.41688,409.710707 L145.41688,401 L147,401 Z"
                      id="Fill-41" fill="#ECEDEE"></path>
                <path d="M154.719863,401 C156.399705,401 158.026516,401.440136 159.173091,402.061954 L159.173091,403.460091 C158.133071,402.812523 156.373189,402.320886 154.826418,402.320886 C153.226614,402.320886 151.546771,402.89025 151.546771,404.366591 C151.546771,407.629227 160,406.127137 160,410.632932 C160,413.093023 157.573288,414 154.933464,414 C153.146575,414 151.173091,413.533637 150,412.782591 L150,411.332477 C151.280137,412.160773 153.226614,412.652887 154.853425,412.652887 C156.826909,412.652887 158.479745,412.160773 158.479745,410.685386 C158.479745,407.473773 150.026516,408.923887 150.026516,404.392341 C150.026516,401.958 152.426712,401 154.719863,401"
                      id="Fill-42" fill="#ECEDEE"></path>
                <path d="M174.460586,401.974671 C171.676909,401.974671 169.496782,403.978893 169.496782,407.293018 C169.496782,410.579587 171.676909,412.61038 174.460586,412.61038 C176.903315,412.61038 178.794241,410.953564 179.529333,409.02955 L179.529333,405.555501 C178.794241,403.631488 176.903315,401.974671 174.460586,401.974671 Z M181,395 L181,413.706231 L179.660876,413.706231 L179.660876,411.060836 C178.58387,412.690588 176.798371,414 174.276813,414 C170.704847,414 168,411.247825 168,407.293018 C168,403.338211 170.704847,400.585543 174.276813,400.585543 C176.798371,400.585543 178.58387,401.894955 179.529333,403.364291 L179.529333,395 L181,395 Z"
                      id="Fill-43" fill="#ECEDEE"></path>
                <path d="M185.285509,414 L186.766141,414 L186.766141,400.987826 L185.285509,400.987826 L185.285509,414 Z M186.012434,398.060124 C185.467719,398.060124 185,397.734657 185,397.030311 C185,396.379378 185.467719,396 186.012434,396 C186.532281,396 187,396.379378 187,397.030311 C187,397.734657 186.532281,398.060124 186.012434,398.060124 Z"
                      id="Fill-44" fill="#ECEDEE"></path>
                <path d="M196.460586,402.367977 C193.676909,402.367977 191.496782,404.341682 191.496782,407.605346 C191.496782,410.841873 193.676909,412.841746 196.460586,412.841746 C198.903315,412.841746 200.794241,411.289143 201.529333,409.500064 L201.529333,405.894284 C200.794241,403.999566 198.903315,402.367977 196.460586,402.367977 M196.276813,401 C198.798371,401 200.58387,402.289474 201.660876,403.894412 L201.660876,401.288811 L203,401.288811 L203,413.920911 C203,418.236604 199.69112,420 196.250214,420 C194.412485,420 192.704847,419.578898 191.208065,418.815195 L191.208065,417.368232 C192.704847,418.184269 194.333656,418.631539 196.066925,418.631539 C198.92943,418.631539 201.529333,417.368232 201.529333,413.920911 L201.529333,411.420949 C200.58387,412.920732 198.798371,414.210207 196.276813,414.210207 C192.704847,414.210207 190,411.499936 190,407.605346 C190,403.710755 192.704847,401 196.276813,401"
                      id="Fill-45" fill="#ECEDEE"></path>
                <path d="M207.285509,414 L208.766141,414 L208.766141,400.987826 L207.285509,400.987826 L207.285509,414 Z M208.012434,398.060124 C207.467719,398.060124 207,397.734657 207,397.030311 C207,396.379378 207.467719,396 208.012434,396 C208.532281,396 209,396.379378 209,397.030311 C209,397.734657 208.532281,398.060124 208.012434,398.060124 Z"
                      id="Fill-46" fill="#ECEDEE"></path>
                <path d="M215.033472,396 L215.033472,400.595584 L220.585919,400.595584 L220.585919,402.04584 L215.033472,402.04584 L215.033472,409.650743 C215.033472,411.730165 216.027978,412.550248 218.0994,412.550248 C219.177332,412.550248 220.171838,412.303921 221,411.948283 L221,413.370834 C220.11639,413.754177 218.928579,414 217.685319,414 C215.14386,414 213.486519,412.63286 213.486519,409.924272 L213.486519,402.04584 L211,402.04584 L211,400.595584 L213.486519,400.595584 L213.486519,396.410041 L215.033472,396 Z"
                      id="Fill-47" fill="#ECEDEE"></path>
                <path d="M226.636998,412.731091 C228.512713,412.731091 230.336618,411.876568 231.45677,410.297227 L231.45677,408.017864 C230.363002,407.733182 228.981881,407.5 227.731245,407.5 C225.673235,407.5 223.510646,408.173318 223.510646,410.244773 C223.510646,411.954295 225.047677,412.731091 226.636998,412.731091 M234.035758,412.549886 C234.374442,412.549886 234.687221,412.472159 235,412.368205 L235,413.559387 C234.582641,413.714841 234.113953,413.818319 233.644784,413.818319 C232.576922,413.818319 231.613159,413.300455 231.483154,411.902318 C230.232038,413.248955 228.434518,414 226.350603,414 C224.162589,414 222,412.860318 222,410.3225 C222,407.241068 224.865862,406.257318 227.523045,406.257318 C228.851397,406.257318 230.258423,406.463796 231.45677,406.800455 L231.45677,405.972159 C231.45677,403.797227 230.049744,402.346636 227.470755,402.346636 C225.568656,402.346636 224.031625,402.786773 222.989668,403.226909 L222.989668,401.776796 C223.95391,401.440136 225.59504,401 227.627145,401 C230.935791,401 232.915606,402.83875 232.915606,406.153364 L232.915606,411.462182 C232.915606,412.290478 233.436584,412.549886 234.035758,412.549886"
                      id="Fill-48" fill="#ECEDEE"></path>
                <polygon id="Fill-49" fill="#ECEDEE" points="237 413 239 413 239 394 237 394"></polygon>
                <path d="M85.6631081,76.5504714 L120.486659,40.5735421 L120.486659,150.982341 L86.3805292,159.610575 L85.6631081,159.791717 L85.6631081,76.5504714 Z M208,132.121469 L197.261299,134.930617 C195.720119,135.333635 194.079818,134.887008 192.958697,133.75942 L164.030894,104.661116 C162.909773,103.533528 162.477685,101.896056 162.897744,100.36497 L174.200374,59.1742016 L132.114558,0 L77.9480649,67.6490866 L77.9480649,161.740677 L53,168.044247 L53,214.789576 L78.8478486,226.091819 L78.8478486,185.246084 L93.8410346,184.324557 L93.8410346,232.647455 L138.101247,252 L192.626691,221.695038 L192.626691,162.18347 L208,166.516516 L208,132.121469 Z"
                      id="Fill-49" fill="#FFFFFF"></path>
                <path d="M219.154731,103.027928 C212.497089,109.634858 201.756099,109.581115 195.164526,102.908448 C188.572474,96.2357805 188.625617,85.47055 195.283259,78.8641006 C201.940901,72.2571713 212.68189,72.3109135 219.273942,78.9835809 C225.865515,85.6562484 225.812373,96.4209991 219.154731,103.027928 M234.71588,81.4053379 L216.848063,63.3186951 C215.732551,62.1891496 214.100936,61.7424177 212.567466,62.1459639 L188.005143,68.6113402 C186.471674,69.0148863 185.269506,70.2082507 184.851549,71.7408625 L178.157042,96.2928815 C177.739084,97.8259732 178.169011,99.4655895 179.284523,100.595135 L197.152339,118.681778 C198.267851,119.810843 199.899466,120.257575 201.432936,119.854029 L225.995259,113.388653 C227.528729,112.985107 228.730896,111.792222 229.148854,110.259131 L235.842882,85.7071116 C236.26084,84.1740199 235.831392,82.5344036 234.71588,81.4053379"
                      id="Fill-50" fill="#FFFFFF"></path>
            </g>
        </g>
    </g>
</svg>
