<svg xmlns="http://www.w3.org/2000/svg" width="118" height="118" viewBox="0 0 118 118">
    <g fill="#ECEDEE" fill-rule="evenodd">
        <path d="M77.942 40.058L56.637 67.471 28.76 89.24 0 118l102.912-.039c8.278-.002 14.99-6.71 14.996-14.989L118 0 77.942 40.058z"/>
        <path d="M25.179 33.68h6.066l10.474 15.978 10.43-15.978h6.066v30.728h-6.546v-18.92l-8.074 12.335H39.8l-8.074-12.378v18.963h-6.546V33.68zm48.34-7.499v59.227c-.256.013-.438.029-.62.029-17.835.001-35.67.002-53.506 0-2.334-.001-4.07-1.242-4.667-3.303-.732-2.526.844-5.176 3.415-5.698.504-.102 1.032-.12 1.55-.12l49.276-.004V17H17.94c-.629.178-1.27.322-1.884.54-3.559 1.265-5.932 4.544-6.044 8.328-.017.546-.01 1.092-.01 1.639 0 17.679-.002 35.357.001 53.036.001 4.365 2.538 7.927 6.508 9.054.896.255 1.857.385 2.79.386 19.346.022 38.694.016 58.04.017H78V26.181h-4.481z"/>
    </g>
</svg>
