<svg xmlns:xlink="http://www.w3.org/1999/xlink" xmlns="http://www.w3.org/2000/svg" width="263" height="405"
     viewBox="0 0 263 405">
    <defs>
        <path id="a" d="M0 405h263V0H0z"/>
    </defs>
    <g fill="none" fill-rule="evenodd">
        <path fill="#ECEDEE"
              d="M65.723 273c3.561 0 7.02.817 10.023 2.402v4.293c-2.595-1.738-5.953-2.607-9.31-2.607-7.378 0-15.06 4.446-15.111 14.667-.051 9.557 7.885 14.157 15.263 14.157 3.663 0 6.97-.87 9.412-2.606v4.292C73.049 309.132 69.488 310 65.672 310c-8.954 0-18.723-6.337-18.672-18.245C47.051 279.337 56.463 273 65.723 273M93.314 310v-13.629L79 274h4.84l11.66 18.514L107.16 274H112l-14.314 22.371V310zM132.24 293.44h-10.987v12.446h9.823c4.456 0 9.62-.309 9.62-6.223 0-5.606-5.063-6.223-8.455-6.223zm-1.063-15.326h-9.924v11.212h11.089c3.696 0 6.937-1.492 6.937-5.607 0-4.268-3.09-5.605-8.102-5.605zm.355-4.114c7.24 0 12.05 3.034 12.05 9.102 0 4.578-2.885 7.15-5.67 7.972 2.936.823 7.088 3.189 7.088 9.051 0 8.178-7.899 9.875-13.063 9.875H117v-36h14.532zM177.686 274v4.114h-20.293v11.674h18.724v4.115h-18.724v11.983H178V310h-25v-36zM188.3 291.691h9.932c4.3 0 8.856-1.44 8.856-6.788 0-5.4-4.556-6.789-8.856-6.789H188.3v13.577zM184 310v-36h14.027c6.45 0 13.413 2.674 13.413 10.903 0 6.634-4.505 9.617-9.573 10.543L214 310h-5.376l-11.723-14.194h-8.6V310H184zM37 325v36h-4.305v-27.823l-12.863 19.337h-2.665L4.305 333.177V361H0v-36h3.69l14.81 22.217L33.31 325zM52.051 348.297h15.95l-7.437-17.486c-.205-.462-.36-.874-.564-1.388-.205.514-.36.926-.564 1.388l-7.385 17.486zM42 361l15.64-36h4.77L78 361h-4.615l-3.692-8.691H50.359L46.667 361H42zM99.252 324c3.83 0 7.66.817 10.868 2.402v4.293c-2.794-1.738-6.469-2.607-10.247-2.607-7.607 0-15.474 4.19-15.474 14.412 0 10.783 7.97 14.412 15.577 14.412 2.433 0 4.865-.46 6.677-1.33v-14.206H111v17.222c-3.364 1.534-7.4 2.402-11.334 2.402C89.73 361 80 355.992 80 342.5c0-12.316 9.626-18.5 19.252-18.5M124.051 348.297h15.95l-7.437-17.486c-.205-.462-.36-.874-.564-1.388-.205.514-.36.926-.564 1.388l-7.385 17.486zM114 361l15.64-36h4.77L150 361h-4.615l-3.692-8.691h-19.334L118.667 361H114zM152 361v-3.909l20.913-27.977H152.52V325h25.648v3.909l-20.966 27.977H179V361z"/>
        <mask id="b" fill="#fff">
            <use xlink:href="#a"/>
        </mask>
        <path fill="#ECEDEE"
              d="M185 361h4v-36h-4zM199 361v-36h4.013l21.665 28.749V325H229v36h-4.013l-21.665-28.8V361zM262.686 325v4.114h-20.293v11.674h18.724v4.115h-18.724v11.983H263V361h-25v-36zM33.036 387.608c-2.254 0-4 1.57-4.678 3.392v3.291c.678 1.823 2.424 3.393 4.678 3.393 2.57 0 4.582-1.924 4.582-5.038 0-3.14-2.012-5.038-4.582-5.038zM28.382 381v7.924c.872-1.392 2.497-2.632 4.824-2.632 3.321 0 5.794 2.607 5.794 6.354S36.527 399 33.206 399c-2.327 0-3.952-1.24-4.97-2.784v2.506H27V381h1.382zM51.45 387H53l-6.28 14.152c-1.267 2.81-2.714 3.848-4.446 3.848a6 6 0 0 1-1.317-.152v-1.266c.387.102.775.152 1.137.152 1.473 0 2.507-.987 3.385-3.114l.62-1.417L40 387h1.551l5.272 10.557L51.45 387zM61 399v-18h1.475v8.075h4.575L72.7 381h1.7l-6.125 8.769L75 399h-1.725l-6.175-8.486h-4.625V399zM88 387v11.73h-1.324v-2.1c-.815 1.1-2.496 2.37-4.736 2.37-2.98 0-4.94-1.858-4.94-4.766V387h1.451v7.063c0 2.42 1.4 3.666 3.642 3.666 2.139 0 3.64-1.393 4.456-2.688V387H88zM99 387.008v1.395c-2.795-.196-4.818 1.395-5.483 3.426V399H92v-11.748h1.358v2.717c.931-1.737 3.114-3.083 5.642-2.961M107.036 387.608c-2.254 0-4 1.57-4.678 3.392v3.291c.678 1.823 2.424 3.393 4.678 3.393 2.57 0 4.582-1.924 4.582-5.038 0-3.14-2.012-5.038-4.582-5.038zM102.382 381v7.924c.872-1.392 2.497-2.632 4.824-2.632 3.321 0 5.794 2.607 5.794 6.354S110.527 399 107.206 399c-2.327 0-3.952-1.24-4.97-2.784v2.506H101V381h1.382zM116.286 399h1.48v-12.29h-1.48V399zm.727-15.054c-.546 0-1.013-.308-1.013-.973 0-.615.467-.973 1.013-.973.52 0 .987.358.987.973 0 .665-.467.973-.987.973zM131.274 399l-5.024-5.631h-2.782V399H122v-18h1.468v11.006h2.86l4.328-5.349h1.7l-4.869 6.069L133 399zM145 387v11.73h-1.324v-2.1c-.815 1.1-2.496 2.37-4.736 2.37-2.98 0-4.94-1.858-4.94-4.766V387h1.451v7.063c0 2.42 1.4 3.666 3.642 3.666 2.139 0 3.64-1.393 4.456-2.688V387H145zM152.248 387c1.512 0 2.976.44 4.008 1.062v1.398c-.936-.647-2.52-1.14-3.912-1.14-1.44 0-2.952.57-2.952 2.047 0 3.262 7.608 1.76 7.608 6.266 0 2.46-2.184 3.367-4.56 3.367-1.608 0-3.384-.466-4.44-1.217v-1.45c1.152.828 2.904 1.32 4.368 1.32 1.776 0 3.264-.492 3.264-1.968 0-3.211-7.608-1.761-7.608-6.293 0-2.434 2.16-3.392 4.224-3.392M171.964 387.608c-2.57 0-4.582 1.898-4.582 5.038 0 3.114 2.012 5.038 4.582 5.038 2.254 0 4-1.57 4.678-3.393V391c-.678-1.823-2.424-3.392-4.678-3.392zM178 381v17.722h-1.236v-2.506c-.994 1.544-2.642 2.784-4.97 2.784-3.297 0-5.794-2.607-5.794-6.354s2.497-6.354 5.794-6.354c2.328 0 3.976 1.24 4.848 2.632V381H178zM183.285 399h1.481v-12.29h-1.48V399zm.728-15.054c-.546 0-1.013-.308-1.013-.973 0-.615.467-.973 1.013-.973.52 0 .987.358.987.973 0 .665-.467.973-.987.973zM192.964 388.296c-2.57 0-4.582 1.87-4.582 4.962 0 3.066 2.012 4.96 4.582 4.96 2.254 0 4-1.47 4.678-3.165v-3.416c-.678-1.795-2.424-3.341-4.678-3.341m-.17-1.296c2.328 0 3.976 1.222 4.97 2.742v-2.468H199v11.967c0 4.088-3.054 5.759-6.23 5.759a9.973 9.973 0 0 1-4.655-1.122v-1.371c1.382.773 2.885 1.197 4.485 1.197 2.643 0 5.042-1.197 5.042-4.463v-2.369c-.872 1.421-2.52 2.643-4.848 2.643-3.297 0-5.794-2.568-5.794-6.257 0-3.69 2.497-6.258 5.794-6.258M204.285 399h1.481v-12.29h-1.48V399zm.728-15.054c-.546 0-1.013-.308-1.013-.973 0-.615.467-.973 1.013-.973.52 0 .987.358.987.973 0 .665-.467.973-.987.973zM211.63 383v4.34h4.997v1.37h-4.997v7.182c0 1.964.895 2.739 2.76 2.739.97 0 1.865-.233 2.61-.569v1.344c-.795.362-1.864.594-2.983.594-2.288 0-3.78-1.291-3.78-3.85v-7.44H208v-1.37h2.238v-3.953l1.392-.387zM222.637 398.731c1.876 0 3.7-.854 4.82-2.434v-2.28c-1.094-.284-2.475-.517-3.726-.517-2.058 0-4.22.673-4.22 2.745 0 1.71 1.537 2.486 3.126 2.486m7.399-.181c.338 0 .651-.078.964-.182v1.191a3.937 3.937 0 0 1-1.355.26c-1.068 0-2.032-.519-2.162-1.917-1.251 1.347-3.048 2.098-5.132 2.098-2.188 0-4.351-1.14-4.351-3.678 0-3.08 2.866-4.065 5.523-4.065 1.328 0 2.735.207 3.934.543v-.828c0-2.175-1.407-3.625-3.986-3.625-1.902 0-3.44.44-4.481.88v-1.45a14.228 14.228 0 0 1 4.637-.777c3.309 0 5.289 1.839 5.289 5.153v5.31c0 .827.52 1.087 1.12 1.087M233 399h1v-18h-1zM86.399 74.122l33.475-34.836v106.907l-32.786 8.354-.69.176v-80.6zM204 135.314c-12.346-.001-24.691-.006-37.038-.02-1.112 0-2.261-.156-3.331-.46-4.743-1.343-7.773-5.586-7.773-10.786-.004-21.06-.002-42.121-.001-63.182 0-.651-.01-1.302.01-1.953.134-4.508 2.97-8.414 7.22-9.92.694-.247 1.416-.414 2.126-.61L131.053.002V0h-.001v.001l-52.07 65.502v91.107L55 162.714v45.262l24.848 10.944v-39.55l14.412-.893v46.79L136.793 244l52.43-29.338V157.04L204 161.234v-25.92z"
              mask="url(#b)"/>
        <path fill="#ECEDEE"
              d="M179.286 74.538h5.709l9.858 14.884 9.817-14.884h5.709v28.623h-6.162V85.537l-7.598 11.49h-3.573l-7.599-11.53v17.664h-6.16V74.538zm45.497-6.986v55.17c-.241.012-.413.027-.584.027-16.786.002-33.572.003-50.359 0-2.196 0-3.83-1.156-4.392-3.076-.689-2.353.794-4.822 3.214-5.308.474-.095.972-.11 1.459-.111l46.378-.004V59h-48.027c-.592.166-1.195.3-1.773.503-3.35 1.178-5.583 4.233-5.689 7.757-.015.509-.008 1.018-.008 1.527 0 16.468-.003 32.936 0 49.403.001 4.066 2.388 7.384 6.125 8.435a9.854 9.854 0 0 0 2.626.36c18.209.02 36.418.014 54.627.014l.62.001V67.552h-4.217z"
              mask="url(#b)"/>
    </g>
</svg>
