<svg xmlns:xlink="http://www.w3.org/1999/xlink" xmlns="http://www.w3.org/2000/svg" width="118" height="118"
     viewBox="0 0 118 118">
    <defs>
        <path id="a" d="M0 0h118v118H0z"/>
    </defs>
    <g fill="none" fill-rule="evenodd">
        <mask id="b" fill="#fff">
            <use xlink:href="#a"/>
        </mask>
        <path fill="#ECEDEE"
              d="M55.565 56.132a5.901 5.901 0 0 1-5.905 5.897H37.598a5.901 5.901 0 0 1-5.905-5.897V44.088a5.901 5.901 0 0 1 5.905-5.897H49.66a5.901 5.901 0 0 1 5.905 5.897v12.044zm23.403-17.155l-17.716-.13a5.901 5.901 0 0 1-5.905-5.898V21.155a5.901 5.901 0 0 0-5.905-5.897h-11.81a5.901 5.901 0 0 0-5.906 5.897V32.95a5.901 5.901 0 0 1-5.905 5.897H14.01a5.901 5.901 0 0 0-5.905 5.897v11.794a5.901 5.901 0 0 0 5.905 5.897h11.81a5.901 5.901 0 0 1 5.906 5.897v17.691L0 117.9l102.845.08c8.281.007 15.001-6.698 15.012-14.98.053-34.333.098-68.667.143-103L78.968 38.977z"
              mask="url(#b)"/>
    </g>
</svg>
