<svg xmlns:xlink="http://www.w3.org/1999/xlink" xmlns="http://www.w3.org/2000/svg" width="235" height="420"
     viewBox="0 0 235 420">
    <defs>
        <path id="a" d="M0 .065h28.695v36.779H0z"/>
        <path id="c" d="M0 420h236V0H0z"/>
    </defs>
    <g fill="none" fill-rule="evenodd">
        <path fill="#ECEDEE"
              d="M48.368 283c3.685 0 7.264.84 10.369 2.466v4.41c-2.684-1.785-6.158-2.678-9.632-2.678-7.631 0-15.578 4.567-15.631 15.064-.053 9.815 8.157 14.54 15.789 14.54 3.79 0 7.21-.893 9.737-2.677v4.408C55.947 320.108 52.263 321 48.316 321c-9.263 0-19.369-6.508-19.316-18.738C29.053 289.508 38.79 283 48.368 283M76.314 321v-14.008L62 284h4.84l11.66 19.029L90.16 284H95l-14.314 22.992V321zM116.785 303.98h-11.38v12.791h10.174c4.614 0 9.964-.316 9.964-6.396 0-5.761-5.245-6.395-8.758-6.395zm-1.101-15.752h-10.279v11.523h11.485c3.828 0 7.184-1.533 7.184-5.762 0-4.387-3.199-5.76-8.39-5.76zm.367-4.228c7.499 0 12.48 3.119 12.48 9.355 0 4.705-2.988 7.348-5.873 8.193 3.042.846 7.342 3.277 7.342 9.303 0 8.405-8.18 10.149-13.53 10.149H101v-37h15.05zM163.673 284v4.228h-21.105v11.999h19.474v4.229h-19.474v12.315H164V321h-26v-37zM175.444 302.183h10.262c4.444 0 9.152-1.48 9.152-6.977 0-5.55-4.708-6.977-9.152-6.977h-10.262v13.954zM171 321v-37h14.495c6.665 0 13.86 2.749 13.86 11.206 0 6.818-4.656 9.884-9.892 10.836L202 321h-5.555l-12.114-14.589h-8.887V321H171z"/>
        <g transform="translate(0 336)">
            <mask id="b" fill="#fff">
                <use xlink:href="#a"/>
            </mask>
            <path fill="#ECEDEE"
                  d="M13.01 4.267H4.496V19.61h8.512c6.103 0 11.136-1.471 11.136-7.671 0-6.253-4.98-7.672-11.136-7.672zM12.794.065c8.672 0 15.9 2.679 15.9 11.874s-7.228 11.874-15.9 11.874H4.497v13.03H0V.066h12.795z"
                  mask="url(#b)"/>
        </g>
        <path fill="#ECEDEE"
              d="M39.444 354.183h10.262c4.444 0 9.152-1.48 9.152-6.977 0-5.55-4.708-6.977-9.152-6.977H39.444v13.954zM35 373v-37h14.495c6.665 0 13.86 2.749 13.86 11.206 0 6.818-4.655 9.884-9.893 10.836L66 373h-5.555l-12.114-14.589h-8.887V373H35zM89.5 339.198c-10.123 0-14.971 7.244-14.971 14.802S79.377 368.8 89.5 368.8c10.123 0 14.971-7.243 14.971-14.801s-4.848-14.802-14.971-14.802m0-4.198c13.053 0 19.5 9.5 19.5 19s-6.447 19-19.5 19S70 363.5 70 354s6.447-19 19.5-19M133 336v26.868c0 7.867-5.473 11.132-12.342 11.132-3.756 0-7.244-.803-9.658-2.301v-4.496c2.36 1.66 5.527 2.515 8.854 2.515 4.936 0 8.639-1.605 8.639-7.01V340.28h-11.054V336H133zM167.673 336v4.228h-21.105v11.999h19.474v4.229h-19.474v12.315H168V373h-26v-37zM191.368 335c3.685 0 7.264.84 10.369 2.466v4.41c-2.684-1.785-6.158-2.678-9.632-2.678-7.631 0-15.578 4.567-15.631 15.064-.053 9.815 8.157 14.54 15.789 14.54 3.79 0 7.21-.893 9.737-2.677v4.408c-3.053 1.575-6.737 2.467-10.684 2.467-9.263 0-19.369-6.508-19.316-18.738.053-12.754 9.79-19.262 19.368-19.262M235 336v4.228h-12.813V373h-4.374v-32.772H205V336zM14.54 401.975c-2.443 0-4.334 1.656-5.07 3.58v3.475c.736 1.924 2.627 3.58 5.07 3.58 2.783 0 4.963-2.03 4.963-5.317 0-3.314-2.18-5.318-4.964-5.318zM9.496 395v8.364c.945-1.469 2.705-2.778 5.226-2.778 3.598 0 6.277 2.752 6.277 6.707S18.321 414 14.723 414c-2.52 0-4.28-1.31-5.384-2.94v2.646H8V395h1.497zM33.45 401H35l-6.28 14.938c-1.267 2.967-2.714 4.062-4.446 4.062a5.7 5.7 0 0 1-1.317-.16v-1.336c.387.106.775.16 1.137.16 1.473 0 2.507-1.042 3.385-3.287l.62-1.496L22 401h1.551l5.272 11.144L33.45 401zM44 414v-19h1.58v8.523h4.902L56.536 395h1.82l-6.562 9.256L59 414h-1.848l-6.616-8.957H45.58V414zM72 401v12.708h-1.445v-2.276c-.889 1.191-2.722 2.568-5.166 2.568-3.25 0-5.389-2.013-5.389-5.163V401h1.583v7.652c0 2.62 1.528 3.971 3.972 3.971 2.334 0 3.973-1.51 4.862-2.912V401H72zM82 401.008v1.512c-2.795-.212-4.818 1.51-5.483 3.711V414H75v-12.727h1.358v2.943c.931-1.882 3.114-3.34 5.642-3.208M91.54 401.975c-2.443 0-4.334 1.656-5.07 3.58v3.475c.736 1.924 2.627 3.58 5.07 3.58 2.783 0 4.963-2.03 4.963-5.317 0-3.314-2.18-5.318-4.964-5.318zM86.496 395v8.364c.945-1.469 2.705-2.778 5.226-2.778 3.598 0 6.277 2.752 6.277 6.707S95.321 414 91.723 414c-2.52 0-4.28-1.31-5.384-2.94v2.646H85V395h1.497z"/>
        <mask id="d" fill="#fff">
            <use xlink:href="#c"/>
        </mask>
        <path fill="#ECEDEE"
              d="M100.286 414h1.48v-13.012h-1.48V414zm.727-15.94c-.545 0-1.013-.325-1.013-1.03 0-.65.468-1.03 1.013-1.03.52 0 .987.38.987 1.03 0 .705-.468 1.03-.987 1.03zM115.274 414l-5.024-5.944h-2.782V414H106v-19h1.468v11.617h2.86l4.328-5.645h1.7l-4.869 6.405L117 414zM131 401v12.708h-1.445v-2.276c-.889 1.191-2.722 2.568-5.166 2.568-3.25 0-5.389-2.013-5.389-5.163V401h1.583v7.652c0 2.62 1.528 3.971 3.972 3.971 2.334 0 3.973-1.51 4.862-2.912V401H131zM138.72 401c1.68 0 3.307.44 4.453 1.062v1.398c-1.04-.647-2.8-1.14-4.347-1.14-1.6 0-3.28.57-3.28 2.047 0 3.262 8.454 1.76 8.454 6.266 0 2.46-2.427 3.367-5.067 3.367-1.786 0-3.76-.466-4.933-1.217v-1.45c1.28.828 3.227 1.32 4.853 1.32 1.974 0 3.627-.492 3.627-1.968 0-3.211-8.453-1.761-8.453-6.293 0-2.434 2.4-3.392 4.693-3.392M158.46 401.975c-2.783 0-4.963 2.004-4.963 5.318 0 3.287 2.18 5.317 4.964 5.317 2.442 0 4.333-1.656 5.068-3.58v-3.474c-.735-1.925-2.626-3.581-5.068-3.581zM165 395v18.706h-1.34v-2.645c-1.076 1.63-2.862 2.939-5.383 2.939-3.572 0-6.277-2.752-6.277-6.707s2.705-6.707 6.277-6.707c2.521 0 4.307 1.309 5.252 2.778V395H165zM169.286 414h1.48v-13.012h-1.48V414zm.726-15.94c-.544 0-1.012-.325-1.012-1.03 0-.65.468-1.03 1.012-1.03.52 0 .988.38.988 1.03 0 .705-.468 1.03-.988 1.03zM180.46 402.368c-2.783 0-4.963 1.974-4.963 5.237 0 3.237 2.18 5.237 4.964 5.237 2.442 0 4.333-1.553 5.068-3.342v-3.606c-.735-1.894-2.626-3.526-5.068-3.526m-.184-1.368c2.521 0 4.307 1.29 5.384 2.894v-2.605H187v12.632c0 4.316-3.309 6.079-6.75 6.079-1.838 0-3.545-.421-5.042-1.185v-1.447c1.497.816 3.126 1.264 4.859 1.264 2.862 0 5.462-1.264 5.462-4.711v-2.5c-.945 1.5-2.73 2.79-5.252 2.79-3.572 0-6.277-2.711-6.277-6.606 0-3.894 2.705-6.605 6.277-6.605M191.286 414h1.48v-13.012h-1.48V414zm.726-15.94c-.544 0-1.012-.325-1.012-1.03 0-.65.468-1.03 1.012-1.03.52 0 .988.38.988 1.03 0 .705-.468 1.03-.988 1.03zM199.033 396v4.596h5.553v1.45h-5.553v7.605c0 2.08.995 2.9 3.066 2.9a7.393 7.393 0 0 0 2.901-.603v1.423c-.884.383-2.071.629-3.315.629-2.541 0-4.198-1.367-4.198-4.076v-7.878H195v-1.45h2.487v-4.186l1.546-.41zM210.637 412.731c1.876 0 3.7-.854 4.82-2.434v-2.28c-1.094-.284-2.475-.517-3.726-.517-2.058 0-4.22.673-4.22 2.745 0 1.71 1.537 2.486 3.126 2.486m7.399-.181c.338 0 .651-.078.964-.182v1.191a3.937 3.937 0 0 1-1.355.26c-1.068 0-2.032-.519-2.162-1.917-1.251 1.347-3.048 2.098-5.132 2.098-2.188 0-4.351-1.14-4.351-3.678 0-3.08 2.866-4.065 5.523-4.065 1.328 0 2.735.207 3.934.543v-.828c0-2.175-1.407-3.625-3.986-3.625-1.902 0-3.44.44-4.481.88v-1.45a14.228 14.228 0 0 1 4.637-.777c3.309 0 5.289 1.839 5.289 5.153v5.31c0 .827.52 1.087 1.12 1.087M221 413h2v-19h-2zM186.52 119h-9.04a4.48 4.48 0 0 1-4.48-4.48v-9.04a4.48 4.48 0 0 1 4.48-4.48h9.04a4.48 4.48 0 0 1 4.48 4.48v9.04a4.48 4.48 0 0 1-4.48 4.48M214.629 99H200.37A6.371 6.371 0 0 1 194 92.629V78.37A6.371 6.371 0 0 1 200.37 72h14.259A6.371 6.371 0 0 1 221 78.371V92.63A6.371 6.371 0 0 1 214.629 99M211.476 140h-10.952a5.524 5.524 0 0 1-5.524-5.524v-10.952a5.524 5.524 0 0 1 5.524-5.524h10.952a5.524 5.524 0 0 1 5.524 5.524v10.952a5.524 5.524 0 0 1-5.524 5.524"
              mask="url(#d)"/>
        <path fill="#ECEDEE"
              d="M69.447 76.854l34.593-36.12v110.847l-33.959 8.683-.634.162V76.854zM191 141.55h-17.008c-2.446 0-4.43-1.997-4.43-4.46V124.36c0-2.463-1.985-4.46-4.431-4.46h-12.384c-2.447 0-4.431-1.996-4.431-4.459v-12.58c0-2.463 1.984-4.46 4.43-4.46h16.816V77.055h.008L115.592 0 61.784 67.918v94.465L37 168.71v46.93l25.677 11.348v-41.008l14.894-.925v48.515L121.539 253l54.164-30.425V162.85l15.272 4.326.025-25.627z"
              mask="url(#d)"/>
    </g>
</svg>
