<svg xmlns="http://www.w3.org/2000/svg" width="37" height="37" viewBox="0 0 37 37">
    <path fill="none" fill-rule="evenodd" stroke="#34517F"
          d="M18.5 1c-2.419 0-4.69.457-6.811 1.37-2.123.915-3.972 2.16-5.55 3.74-1.576 1.578-2.827 3.43-3.752 5.554C1.462 13.788 1 16.06 1 18.482c0 2.421.462 4.694 1.387 6.819.925 2.124 2.176 3.976 3.753 5.554 1.577 1.579 3.426 2.83 5.549 3.756C13.81 35.537 16.08 36 18.5 36c2.419 0 4.69-.463 6.811-1.389 2.123-.925 3.972-2.177 5.55-3.756 1.576-1.578 2.827-3.43 3.752-5.554.925-2.125 1.387-4.398 1.387-6.819 0-2.421-.462-4.694-1.387-6.818-.925-2.125-2.176-3.976-3.753-5.555-1.577-1.578-3.426-2.824-5.549-3.738C23.19 1.457 20.92 1 18.5 1zm4.126 12.07h-2.597c-.166 0-.32.095-.462.285-.142.19-.213.415-.213.677v1.922h3.272l-.462 2.706h-2.81v8.118h-3.095V18.66h-2.81v-2.706h2.81v-1.602c0-1.14.356-2.119 1.067-2.937.712-.82 1.613-1.229 2.703-1.229h2.597v2.884z"/>
</svg>
