<?xml version="1.0" encoding="utf-8"?>
<!-- Generator: Adobe Illustrator 22.1.0, SVG Export Plug-In . SVG Version: 6.00 Build 0)  -->
<svg xmlns:xlink="http://www.w3.org/1999/xlink" version="1.1" id="Слой_1" xmlns="http://www.w3.org/2000/svg" x="0px"
     y="0px"
     viewBox="0 0 272.5 420" style="enable-background:new 0 0 272.5 420;" xml:space="preserve">
<style type="text/css">
	@font-face {
    font-family: 'MullerRegular';
    src: url("/assets/fonts/Fontfabric - MullerRegular.otf");
}

@font-face {
    font-family: 'MullerLight';
    src: url("/assets/fonts/Fontfabric - MullerLight.otf");
}
	.st0{fill:#ECECED;}
	.st1{font-family:'MullerRegular';}
	.st2{font-size:91.3266px;}
	.st3{font-family:'MullerLight';}
	.st4{font-size:44.7788px;}
	.st5{display:none;}
	.st6{display:inline;}
	.st7{display:inline;fill:#ECECED;}
</style>
    <g>
	<text transform="matrix(0.583 0 0 0.583 47.249 321.2315)"><tspan x="0" y="0" class="st0 st1 st2">CYBER</tspan>
        <tspan x="-82.9" y="90.7" class="st0 st1 st2">FOREMAN</tspan></text>
        <text transform="matrix(0.583 0 0 0.583 26.0293 413.8976)" class="st0 st3 st4">by Kurbikus digital</text>
        <polygon class="st0" points="197.3,162.2 142.7,147.2 142.8,252.8 197.3,222.4 	"/>
        <polygon class="st0"
                 points="57.8,168.6 57.8,215.4 83.6,226.8 83.6,185.8 98.6,184.9 98.6,233.4 142.8,252.8 142.9,147 	"/>
        <path class="st0" d="M136.8,0L82.7,67.9v94.4l74.6-11L136.8,0z M125.2,151.4l-34.8,8.8V76.8l34.8-36.1V151.4z"/>
        <path class="st0" d="M197.6,134.2L168.7,105c-1.1-1.1-1.6-2.8-1.1-4.3l11.3-41.3L136.8,0l4.4,146.8l71.4,20.2v-34.5l-10.7,2.8
		C200.4,135.7,198.7,135.3,197.6,134.2z"/>
        <path class="st0" d="M238.9,81.8L221,63.7c-1.1-1.1-2.8-1.6-4.3-1.2L192,69c-1.5,0.4-2.7,1.6-3.2,3.1l-6.7,24.6
		c-0.4,1.5,0,3.2,1.1,4.3l17.9,18.1c1.1,1.1,2.8,1.6,4.3,1.2l24.7-6.5c1.5-0.4,2.7-1.6,3.2-3.1l6.7-24.6
		C240.5,84.6,240.1,82.9,238.9,81.8z M223.3,103.5c-6.7,6.6-17.5,6.6-24.1-0.1c-6.6-6.7-6.6-17.5,0.1-24.1
		c6.7-6.6,17.5-6.6,24.1,0.1C230.1,86.1,230,96.8,223.3,103.5z"/>
</g>
    <g class="st5">
	<text transform="matrix(0.583 0 0 0.583 46.7967 320.9909)" class="st6"><tspan x="0" y="0" class="st0 st1 st2">CYBER</tspan>
        <tspan x="-57.2" y="90.7" class="st0 st1 st2">PROJECT</tspan></text>
        <text transform="matrix(0.583 0 0 0.583 25.576 413.6569)" class="st7 st3 st4">by Kurbikus digital</text>
        <polygon class="st7" points="196.8,162 142.3,147 142.3,252.5 196.8,222.1 	"/>
        <polygon class="st7"
                 points="57.3,168.3 57.3,215.2 83.2,226.5 83.2,185.6 98.1,184.6 98.1,233.1 142.3,252.5 142.4,146.7 	"/>
        <path class="st7" d="M202.2,118.3L202.2,118.3c-4.9,0-9-4-9-9v0c0-4.9,4-9,9-9h0c4.9,0,9,4,9,9v0
		C211.2,114.3,207.2,118.3,202.2,118.3z"/>
        <path class="st7" d="M227.5,97.6H227c-7.3,0-13.2-5.9-13.2-13.2V84c0-7.3,5.9-13.2,13.2-13.2h0.5c7.3,0,13.2,5.9,13.2,13.2v0.5
		C240.7,91.7,234.8,97.6,227.5,97.6z"/>
        <path class="st7" d="M226.1,139.8L226.1,139.8c-5.9,0-10.7-4.8-10.7-10.7v0c0-5.9,4.8-10.7,10.7-10.7h0c5.9,0,10.7,4.8,10.7,10.7v0
		C236.8,135,232,139.8,226.1,139.8z"/>
        <path class="st7" d="M195.1,141.2h17.1l0,25.6l-69.9-19.7L136.4-0.2l54.3,77h0l0,21.3h-16.9c-2.5,0-4.5,2-4.5,4.5v12.6
		c0,2.5,2,4.5,4.5,4.5h12.5c2.5,0,4.5,2,4.5,4.5l0,12.7C190.6,139.2,192.6,141.2,195.1,141.2z"/>
        <path class="st7" d="M136.4-0.2L82.3,67.6V162l74.6-11L136.4-0.2z M124.7,151.2L90,160V76.5l34.8-36.1V151.2z"/>
</g>
    <g class="st5">
	<text transform="matrix(0.583 0 0 0.583 47.2491 321.0479)" class="st6"><tspan x="0" y="0" class="st0 st1 st2">CYBER</tspan>
        <tspan x="-90" y="90.7" class="st0 st1 st2">MAGAZINE</tspan></text>
        <text transform="matrix(0.583 0 0 0.583 26.0294 413.714)" class="st7 st3 st4">by Kurbikus digital</text>
        <polygon class="st7" points="197.3,162 142.8,147 142.8,252.6 197.3,222.2 	"/>
        <polygon class="st7"
                 points="57.8,168.4 57.8,215.3 83.7,226.6 83.7,185.6 98.6,184.7 98.6,233.2 142.8,252.6 142.9,146.8 	"/>
        <path class="st7"
              d="M136.9-0.2L82.8,67.7v94.4l74.6-11L136.9-0.2z M125.3,151.3l-34.8,8.8V76.6l34.8-36.1V151.3z"/>
        <path class="st7" d="M174.2,140c-1.2,0-2.4-0.2-3.5-0.5c-4.9-1.4-8.1-5.8-8.1-11.2c0-21.8,0-43.6,0-65.4c0-0.7,0-1.3,0-2
		c0.1-4.7,3.1-8.7,7.5-10.3c0.7-0.3,1.5-0.4,2.2-0.6L136.9-0.2l4.4,146.8l71.4,20.2V140C199.9,140,187,140,174.2,140z"/>
        <g class="st6">
		<path class="st0" d="M222.8,100.5"/>
	</g>
        <path class="st7" d="M233.3,69.6c0,19.1,0,38.1,0,57.3c-0.2,0-0.4,0-0.6,0c-17.3,0-34.7,0-52,0c-2.3,0-4-1.2-4.5-3.2
		c-0.7-2.4,0.8-5,3.3-5.5c0.5-0.1,1-0.1,1.5-0.1l47.9,0c0-19.1,0-38.2,0-57.3c-16.5,0-33.1,0-49.6,0c-0.6,0.2-1.2,0.3-1.8,0.5
		c-3.5,1.2-5.8,4.4-5.9,8c0,0.5,0,1.1,0,1.6c0,17.1,0,34.2,0,51.3c0,4.2,2.5,7.7,6.3,8.8c0.9,0.2,1.8,0.4,2.7,0.4
		c18.8,0,37.6,0,56.4,0c0.2,0,0.4,0,0.6,0c0-20.6,0-41.1,0-61.7C236.2,69.6,234.8,69.6,233.3,69.6z M186.3,76.8h5.9l10.2,15.4
		l10.1-15.4h5.9v29.7H212V88.3l-7.9,11.9h-3.7l-7.9-12v18.3h-6.4V76.8z"/>
</g>
</svg>
