<svg xmlns:xlink="http://www.w3.org/1999/xlink" xmlns="http://www.w3.org/2000/svg" width="443" height="639"
     viewBox="0 0 443 639">
    <defs>
        <filter id="a" width="116.1%" height="111.1%" x="-7.9%" y="-5.6%" filterUnits="objectBoundingBox">
            <feOffset dy="2" in="SourceAlpha" result="shadowOffsetOuter1"/>
            <feGaussianBlur in="shadowOffsetOuter1" result="shadowBlurOuter1" stdDeviation="7.5"/>
            <feColorMatrix in="shadowBlurOuter1" result="shadowMatrixOuter1"
                           values="0 0 0 0 0 0 0 0 0 0 0 0 0 0 0 0 0 0 0.5 0"/>
            <feMerge>
                <feMergeNode in="shadowMatrixOuter1"/>
                <feMergeNode in="SourceGraphic"/>
            </feMerge>
        </filter>
        <path id="b"
              d="M407.405 580.81c-.426 11.128-11.135 23.29-25.554 23.524l-355.487-.14C14.295 604.053.666 594.193.666 579.542L1.403 26.96C.95 17.486 8.332-.618 28.755.492h352.386c16.659 0 27.253 17.202 27.065 27.534l-.8 552.785z"/>
        <path id="d"
              d="M407.405 580.81c-.426 11.128-11.135 23.29-25.554 23.524l-355.487-.14C14.295 604.053.666 594.193.666 579.542L1.403 26.96C.95 17.486 8.332-.618 28.755.492h352.386c16.659 0 27.253 17.202 27.065 27.534l-.8 552.785z"/>
        <path id="f"
              d="M405.874 580.75c-.833 12.475-11.88 22.083-25.49 23.24l-353.81-.14C13.822 602.785.258 592.93.258 578.293L.99 26.801C.541 17.334 7.888-.064 28.215 1.046L380.153.908c16.579 0 26.23 14.416 26.368 27.585l-.647 552.257z"/>
        <path id="h" d="M8 611h415V0H8L.596 321.75z"/>
    </defs>
    <g fill="none" fill-rule="evenodd" filter="url(#a)" transform="translate(4 13)">
        <path fill="#4C4E51"
              d="M418.195 583.473c-.426 11.13-11.146 23.294-25.583 23.527l-355.885-.14C24.645 606.72 11 596.857 11 582.205l.738-552.683c-.451-9.475 6.938-27.583 27.384-26.473h352.78c16.676 0 27.282 17.207 27.096 27.539l-.803 552.885z"/>
        <g transform="translate(10 3)">
            <mask id="c" fill="#fff">
                <use xlink:href="#b"/>
            </mask>
            <path d="M407.405 580.81c-.426 11.128-11.135 23.29-25.554 23.524l-355.487-.14C14.295 604.053.666 594.193.666 579.542L1.403 26.96C.95 17.486 8.332-.618 28.755.492h352.386c16.659 0 27.253 17.202 27.065 27.534l-.8 552.785z"
                  mask="url(#c)"/>
        </g>
        <g transform="translate(10 3)">
            <mask id="e" fill="#fff">
                <use xlink:href="#d"/>
            </mask>
            <path d="M407.405 580.81c-.426 11.128-11.135 23.29-25.554 23.524l-355.487-.14C14.295 604.053.666 594.193.666 579.542L1.403 26.96C.95 17.486 8.332-.618 28.755.492h352.386c16.659 0 27.253 17.202 27.065 27.534l-.8 552.785z"
                  mask="url(#e)"/>
        </g>
        <path stroke="#FFF" stroke-width="5"
              d="M420.405 582.81c-.425 11.129-11.134 23.29-25.554 23.523l-355.488-.14c-12.067-.141-25.697-10-25.697-24.65l.736-552.584c-.45-9.473 6.93-27.578 27.354-26.468h352.385c16.658 0 27.252 17.204 27.066 27.534l-.802 552.785z"/>
        <path fill="#10161B"
              d="M419.355 582.762c-.833 12.474-11.873 22.08-25.476 23.238l-353.58-.141C27.556 604.794 14 594.94 14 580.306l.733-551.416c-.449-9.465 6.891-26.862 27.205-25.751L393.65 3c16.567 0 26.213 14.414 26.35 27.582l-.645 552.18z"/>
        <g transform="translate(14 3)">
            <mask id="g" fill="#fff">
                <use xlink:href="#f"/>
            </mask>
            <path d="M405.874 580.75c-.833 12.475-11.88 22.083-25.49 23.24l-353.81-.14C13.822 602.785.258 592.93.258 578.293L.99 26.801C.541 17.334 7.888-.064 28.215 1.046L380.153.908c16.579 0 26.23 14.416 26.368 27.585l-.647 552.257z"
                  mask="url(#g)"/>
        </g>
        <path fill="#42464D"
              d="M415.439 584.306c-.694 10.044-10.974 20.463-25.148 20.694l-350.605-.461C27.825 604.4 15 596.414 15 581.903L16.294 34.3c0-9.77 2.31-27.299 26.813-26.837L389.388 7c16.375 0 26.795 15.813 26.61 26.045l-.56 551.26z"/>
        <path fill="#000"
              d="M415.259 583.195c-.417 10.983-9.08 20.528-25.106 20.805L40.9 603.537C29.6 603.26 17 596.452 17 581.994l.812-547.914C17.37 24.73 20.23 8 44.515 8h344.919c16.373 0 26.748 15.988 26.564 26.186l-.74 549.01z"/>
        <mask id="i" fill="#fff">
            <use xlink:href="#h"/>
        </mask>
        <path fill="#EAEAEA" d="M32 550h367V64H32z" mask="url(#i)"/>
        <path fill="#131416"
              d="M229 578.5c0 8.56-6.94 15.5-15.5 15.5-8.56 0-15.5-6.94-15.5-15.5 0-8.562 6.94-15.5 15.5-15.5 8.56 0 15.5 6.938 15.5 15.5"
              mask="url(#i)"/>
        <path fill="#000001"
              d="M229 579.5c0 8.56-6.94 15.5-15.5 15.5-8.56 0-15.5-6.94-15.5-15.5 0-8.56 6.94-15.5 15.5-15.5 8.56 0 15.5 6.94 15.5 15.5"
              mask="url(#i)"/>
        <path fill="#75797D"
              d="M212.499 576.182a2.32 2.32 0 0 0-2.317 2.317v6.002a2.32 2.32 0 0 0 2.317 2.317h6.002a2.32 2.32 0 0 0 2.317-2.317V578.5a2.32 2.32 0 0 0-2.317-2.317H212.5zM218.5 588H212.5a3.502 3.502 0 0 1-3.499-3.499V578.5a3.503 3.503 0 0 1 3.499-3.499h6.002a3.503 3.503 0 0 1 3.499 3.499v6.002c0 1.93-1.57 3.499-3.499 3.499z"
              mask="url(#i)"/>
    </g>
</svg>
