<svg xmlns:xlink="http://www.w3.org/1999/xlink" xmlns="http://www.w3.org/2000/svg" width="345" height="663"
     viewBox="0 0 345 663">
    <defs>
        <filter id="a" width="129.1%" height="114.5%" x="-14.6%" y="-7.3%" filterUnits="objectBoundingBox">
            <feOffset dy="9" in="SourceAlpha" result="shadowOffsetOuter1"/>
            <feGaussianBlur in="shadowOffsetOuter1" result="shadowBlurOuter1" stdDeviation="7.5"/>
            <feColorMatrix in="shadowBlurOuter1" result="shadowMatrixOuter1"
                           values="0 0 0 0 0 0 0 0 0 0 0 0 0 0 0 0 0 0 0.5 0"/>
            <feMerge>
                <feMergeNode in="shadowMatrixOuter1"/>
                <feMergeNode in="SourceGraphic"/>
            </feMerge>
        </filter>
        <path id="b" d="M.704.636h313.518V634H.704z"/>
    </defs>
    <g fill="none" fill-rule="evenodd" filter="url(#a)" transform="translate(15 5)">
        <g transform="translate(1)">
            <mask id="c" fill="#fff">
                <use xlink:href="#b"/>
            </mask>
            <path fill="#FFF"
                  d="M314.222 59.619c0-20.609-2.115-33.423-15.173-46.212C286.439 1.055 268.247.635 262.084.635H52.841c-6.16 0-24.354.42-36.965 12.772C2.821 26.196.704 39.01.704 59.619v515.399c0 20.608 2.117 33.423 15.172 46.213 12.61 12.35 30.805 12.771 36.965 12.77h209.243c6.163.001 24.356-.42 36.965-12.77 13.058-12.79 15.173-25.605 15.173-46.213v-515.4z"
                  mask="url(#c)"/>
        </g>
        <path fill="#000"
              d="M54.668 631c-18.953 0-29.62-6.543-35.237-12.031C7.159 606.976 5 595.109 5 574.606V59.396c0-20.504 2.16-32.372 14.432-44.363C25.048 9.543 35.72 3 54.656 3h209.676c18.948 0 29.62 6.543 35.236 12.033C311.841 27.023 314 38.892 314 59.395v515.21c0 20.503-2.16 32.37-14.432 44.364-5.616 5.488-16.283 12.031-35.19 12.031H54.668z"/>
        <path fill="#FFF"
              d="M1.307 85c-.108 0-.205.041-.306.068v-.023c-.035.009-.063.032-.097.046a1.167 1.167 0 0 0-.413.252c-.053.048-.104.091-.15.148-.067.081-.115.174-.164.27-.028.055-.06.102-.08.16a1.532 1.532 0 0 0-.097.524v21.11c0 .187.037.361.096.525.02.058.053.105.081.159.049.097.097.189.164.27.046.057.097.101.15.148a1.252 1.252 0 0 0 .413.253c.034.013.062.037.097.046v-.024c.1.028.198.068.306.068H2V85h-.693zM1.307 131c-.108 0-.205.042-.306.07v-.025c-.035.01-.063.033-.097.047a1.16 1.16 0 0 0-.413.255c-.053.049-.104.093-.15.15a1.427 1.427 0 0 0-.164.274c-.028.056-.06.103-.08.162a1.569 1.569 0 0 0-.097.53v43.073c0 .188.037.365.096.53.02.06.053.107.081.163.049.097.097.19.164.272.046.058.098.103.151.152a1.199 1.199 0 0 0 .414.256c.033.013.06.037.095.046v-.024c.1.027.198.069.306.069H2v-46h-.693zM2.531 189c-.127 0-.24.042-.36.07v-.025c-.04.01-.073.033-.112.047a1.475 1.475 0 0 0-.485.256c-.061.048-.12.092-.173.149-.08.082-.137.178-.196.276-.03.054-.07.101-.092.16a1.376 1.376 0 0 0-.113.53v43.073c0 .188.044.365.113.53.022.059.06.106.092.16.059.1.117.193.196.276.052.057.113.102.172.15.08.061.16.114.25.16.077.04.153.07.237.097.04.013.071.037.112.046v-.024c.118.027.232.069.36.069H3v-46h-.469z"/>
        <path fill="#F9F9F9"
              d="M287.502 26.359c-3.43-3.358-10.33-7.36-23.723-7.359h-23.903c-1.216.155-2.98.886-3.155 3.8-.242 4.002-.734 9.279-4.706 13.337-3.062 3.13-7.024 4.619-11.145 4.619H97.752c-4.12 0-8.083-1.488-11.146-4.62-3.97-4.057-4.463-9.334-4.704-13.337-.175-2.913-1.94-3.644-3.156-3.799H54.213c-13.386 0-20.284 4.002-23.715 7.359C22.436 34.252 21 41.79 21 59.069v515.863c0 17.277 1.436 24.817 9.5 32.71 3.429 3.357 10.33 7.36 23.722 7.358h209.566c13.387 0 20.286-4.001 23.714-7.359 8.062-7.892 9.498-15.432 9.498-32.709V59.07c0-17.278-1.436-24.817-9.498-32.71"/>
        <path fill="#1A1A1C"
              d="M198 25a5 5 0 1 1-10 0 5 5 0 0 1 10 0M177 25.5c0 1.38-1.128 2.5-2.515 2.5h-32.968A2.509 2.509 0 0 1 139 25.5c0-1.38 1.128-2.5 2.517-2.5h32.968A2.508 2.508 0 0 1 177 25.5"/>
    </g>
</svg>
