<svg xmlns="http://www.w3.org/2000/svg" width="143" height="98" viewBox="0 0 143 98">
    <path fill="#EFC13B" fill-rule="evenodd"
          d="M138.252 89.09h-4.19V8.91c0-2.414-.884-4.502-2.653-6.265C129.64.882 127.546 0 125.125 0H17.875c-2.42 0-4.515.882-6.284 2.645-1.77 1.763-2.653 3.851-2.653 6.264v80.182h-4.19c-1.303 0-2.42.418-3.352 1.253C.466 91.179 0 92.246 0 93.545c0 1.3.465 2.367 1.396 3.202C2.327 97.582 3.445 98 4.748 98h133.504c1.303 0 2.42-.418 3.352-1.253.93-.835 1.396-1.902 1.396-3.202 0-1.299-.465-2.366-1.396-3.201-.931-.835-2.049-1.253-3.352-1.253zM124 10v70H18V10h106z"
          opacity=".5"/>
</svg>
