<svg xmlns="http://www.w3.org/2000/svg" width="40" height="40" viewBox="0 0 40 40">
    <path fill="#000" fill-rule="evenodd"
          d="M14.438 20.913l9.1 8.63c.642.61 1.299.61 1.97 0 .67-.608.656-1.217-.044-1.825L17.413 20l8.05-7.718c.7-.608.715-1.217.045-1.826-.671-.608-1.328-.608-1.97 0l-9.1 8.631c-.292.221-.438.526-.438.913s.146.692.438.913zm-8.58 13.23C9.763 38.046 14.477 40 20 40s10.237-1.953 14.142-5.858C38.047 30.237 40 25.523 40 20S38.047 9.763 34.142 5.858C30.237 1.953 25.523 0 20 0S9.763 1.953 5.858 5.858C1.953 9.763 0 14.477 0 20s1.953 10.237 5.858 14.142zM8.01 7.927C11.295 4.642 15.278 3 19.959 3S28.65 4.656 31.99 7.969C35.33 11.28 37 15.278 37 19.959s-1.67 8.692-5.01 12.031C28.65 35.33 24.64 37 19.96 37c-4.681 0-8.678-1.67-11.99-5.01C4.656 28.65 3 24.64 3 19.96c0-4.681 1.67-8.692 5.01-12.031z"/>
</svg>
