<svg xmlns="http://www.w3.org/2000/svg" width="35" height="25" viewBox="0 0 35 25">
    <path fill="#FFF" fill-rule="evenodd"
          d="M33.238 11H1.762c-.519 0-.942.18-1.27.541-.328.361-.492.84-.492 1.435 0 .628.164 1.122.492 1.483.328.36.751.541 1.27.541h31.476c.519 0 .942-.18 1.27-.541.328-.361.492-.855.492-1.483 0-.596-.164-1.074-.492-1.435-.328-.36-.751-.541-1.27-.541zM1.762 4h31.476c.519 0 .942-.18 1.27-.541.328-.361.492-.855.492-1.483 0-.596-.164-1.074-.492-1.435C34.18.181 33.757 0 33.238 0H1.762C1.243 0 .82.18.492.541.164.902 0 1.381 0 1.976c0 .628.164 1.122.492 1.483.328.36.751.541 1.27.541zm31.476 17H1.762c-.519 0-.942.18-1.27.541-.328.361-.492.84-.492 1.435 0 .628.164 1.122.492 1.483.328.36.751.541 1.27.541h31.476c.519 0 .942-.18 1.27-.541.328-.361.492-.855.492-1.483 0-.596-.164-1.074-.492-1.435-.328-.36-.751-.541-1.27-.541z"/>
</svg>
