<svg xmlns="http://www.w3.org/2000/svg" width="37" height="37" viewBox="0 0 37 37">
    <path fill="none" fill-rule="evenodd" stroke="#34517F"
          d="M18.5 36C8.835 36 1 28.165 1 18.5S8.835 1 18.5 1 36 8.835 36 18.5 28.165 36 18.5 36zm4.034-19.026c1.11-1.11 1.664-2.444 1.664-4.004 0-1.568-.555-2.906-1.664-4.016-1.11-1.109-2.448-1.664-4.016-1.664s-2.907.555-4.016 1.664c-1.11 1.11-1.664 2.448-1.664 4.016 0 1.56.555 2.894 1.664 4.004 1.11 1.109 2.448 1.664 4.016 1.664s2.907-.555 4.016-1.664zm-2.052-5.98a2.67 2.67 0 0 1 .826 1.976c0 .768-.273 1.424-.82 1.97a2.687 2.687 0 0 1-1.97.82 2.687 2.687 0 0 1-1.97-.82 2.687 2.687 0 0 1-.82-1.97c0-.775.273-1.436.82-1.983a2.687 2.687 0 0 1 1.97-.82c.767 0 1.422.276 1.964.827zm4.579 8.332a1.356 1.356 0 0 0-.35-.438 1.44 1.44 0 0 0-.526-.275c-.2-.059-.433-.05-.7.025a2.366 2.366 0 0 0-.814.437l-.475.313c-.309.209-.809.42-1.501.632a7.37 7.37 0 0 1-2.177.32c-.475 0-.947-.047-1.414-.139a8.029 8.029 0 0 1-1.15-.3 6.689 6.689 0 0 1-.864-.381 6.335 6.335 0 0 1-.538-.307 3.928 3.928 0 0 1-.188-.138 2.366 2.366 0 0 0-.813-.437c-.267-.075-.5-.084-.7-.025-.2.058-.376.15-.526.275-.15.125-.267.27-.35.438a1.82 1.82 0 0 0-.188.619c-.017.188.002.357.056.507.055.15.165.31.332.481.167.171.344.326.532.463.187.138.444.31.77.52.95.608 2.272 1 3.965 1.175l-.9.901-3.341 3.34a1.264 1.264 0 0 0-.388.926c0 .359.13.663.388.914l.15.162c.25.25.555.376.913.376.359 0 .667-.125.926-.376l3.34-3.353a794.651 794.651 0 0 1 3.34 3.353c.26.25.568.376.927.376.358 0 .667-.125.925-.376l.15-.162c.25-.25.376-.555.376-.914 0-.358-.125-.667-.376-.925l-3.34-3.34-.913-.902c1.668-.175 2.982-.567 3.94-1.176.326-.208.582-.381.77-.519a4.27 4.27 0 0 0 .532-.463c.167-.17.277-.331.331-.481.055-.15.073-.32.057-.507a1.82 1.82 0 0 0-.188-.62z"/>
</svg>
