<svg xmlns="http://www.w3.org/2000/svg" width="71" height="141" viewBox="0 0 71 141">
    <path fill="#EFC13B" fill-rule="evenodd"
          d="M62.125 0c2.465 0 4.56.857 6.286 2.57C70.137 4.284 71 6.365 71 8.812v123.376c0 2.447-.863 4.528-2.589 6.242-1.725 1.713-3.82 2.57-6.286 2.57H8.875c-2.465 0-4.56-.857-6.286-2.57C.863 136.716 0 134.635 0 132.187V8.813C0 6.365.863 4.285 2.589 2.57 4.314.857 6.409 0 8.875 0h53.25zm-30.75 11c-.917 0-1.375.333-1.375 1s.458 1 1.375 1h8.25c.917 0 1.375-.333 1.375-1s-.458-1-1.375-1h-8.25zM26 12c0-.667-.333-1-1-1s-1 .333-1 1 .333 1 1 1 1-.333 1-1zm4 117.5c0 3.667 1.833 5.5 5.5 5.5s5.5-1.833 5.5-5.5-1.833-5.5-5.5-5.5-5.5 1.833-5.5 5.5zM66 116V22H6v94h60z"
          opacity=".5"/>
</svg>
