<svg xmlns="http://www.w3.org/2000/svg" width="69" height="69" viewBox="0 0 69 69">
    <path fill="#000" fill-rule="evenodd"
          d="M17.16 4.627C22.461 1.542 28.24 0 34.5 0s12.032 1.542 17.317 4.627c5.286 3.085 9.471 7.27 12.556 12.556C67.458 22.468 69 28.24 69 34.5c0 6.26-1.542 12.032-4.627 17.317-3.085 5.286-7.27 9.471-12.556 12.556C46.532 67.458 40.76 69 34.5 69c-6.26 0-12.032-1.542-17.317-4.627-5.286-3.085-9.471-7.27-12.556-12.556C1.542 46.532 0 40.76 0 34.5c0-6.26 1.542-12.032 4.627-17.317 3.085-5.286 7.262-9.471 12.533-12.556zm34.59 32.344c.958-.54 1.437-1.363 1.437-2.471s-.479-1.932-1.437-2.47L27.313 17.653c-.929-.569-1.887-.584-2.876-.045-.958.57-1.437 1.408-1.437 2.516v28.75c0 1.108.48 1.947 1.437 2.516.48.24.959.359 1.438.359.51 0 .988-.135 1.438-.404L51.75 36.97z"
          opacity=".671"/>
</svg>
