<svg xmlns="http://www.w3.org/2000/svg" width="40" height="40" viewBox="0 0 40 40">
    <path fill="#000" fill-rule="evenodd"
          d="M25.562 19.087l-9.1-8.63c-.642-.61-1.299-.61-1.97 0-.67.608-.656 1.217.044 1.825L22.587 20l-8.05 7.718c-.7.608-.715 1.217-.045 1.826.671.608 1.328.608 1.97 0l9.1-8.631c.292-.221.438-.526.438-.913s-.146-.692-.438-.913zm8.58-13.23C30.237 1.954 25.523 0 20 0S9.763 1.953 5.858 5.858C1.953 9.763 0 14.477 0 20s1.953 10.237 5.858 14.142C9.763 38.047 14.477 40 20 40s10.237-1.953 14.142-5.858C38.047 30.237 40 25.523 40 20S38.047 9.763 34.142 5.858zM31.99 32.073C28.705 35.358 24.722 37 20.041 37S11.35 35.344 8.01 32.031C4.67 28.72 3 24.722 3 20.041S4.67 11.35 8.01 8.01C11.35 4.67 15.36 3 20.04 3c4.681 0 8.678 1.67 11.99 5.01C35.344 11.35 37 15.36 37 20.04c0 4.681-1.67 8.692-5.01 12.031z"/>
</svg>
