<svg xmlns="http://www.w3.org/2000/svg" width="37" height="37" viewBox="0 0 37 37">
    <path fill="none" fill-rule="evenodd" stroke="#34517F"
          d="M18.5 1c-2.419 0-4.69.457-6.811 1.37-2.123.915-3.972 2.16-5.55 3.74-1.576 1.578-2.827 3.43-3.752 5.554C1.462 13.788 1 16.06 1 18.482c0 2.421.462 4.694 1.387 6.819.925 2.124 2.176 3.976 3.753 5.554 1.577 1.579 3.426 2.83 5.549 3.756C13.81 35.537 16.08 36 18.5 36c2.419 0 4.69-.463 6.811-1.389 2.123-.925 3.972-2.177 5.55-3.756 1.576-1.578 2.827-3.43 3.752-5.554.925-2.125 1.387-4.398 1.387-6.819 0-2.421-.462-4.694-1.387-6.818-.925-2.125-2.176-3.976-3.753-5.555-1.577-1.578-3.426-2.824-5.549-3.738C23.19 1.457 20.92 1 18.5 1zm6.723 19.725l.818.855c.545.57.913 1.032 1.102 1.388a663544.43 663544.43 0 0 0 .036.036c.071.142.118.261.142.356a.3.3 0 0 1-.035.25.606.606 0 0 1-.356.302c-.166.06-.285.089-.356.089h-2.739c-.094 0-.237-.024-.426-.071-.19-.048-.404-.154-.64-.32a2.54 2.54 0 0 1-.552-.481 12.905 12.905 0 0 0-.551-.588c-.261-.308-.51-.581-.747-.819-.237-.237-.463-.356-.676-.356a.247.247 0 0 0-.107.018.158.158 0 0 1-.071.018c-.19.071-.373.25-.551.534-.178.285-.267.76-.267 1.424 0 .214-.06.374-.178.48-.118.108-.237.161-.356.161H17.47c-.214 0-.795-.113-1.743-.338-.949-.226-1.91-.849-2.881-1.87-.617-.64-1.198-1.4-1.743-2.278a46.174 46.174 0 0 1-1.459-2.51 29.09 29.09 0 0 1-1.013-2.048l-.374-.854c-.071-.166-.053-.297.053-.392a.544.544 0 0 1 .374-.142h2.774c.19 0 .32.047.392.142.07.095.13.19.177.285.048.119.16.386.338.801.178.415.421.884.73 1.406.474.831.865 1.43 1.173 1.799.309.367.581.551.818.551a.584.584 0 0 0 .143-.017.584.584 0 0 1 .142-.018c.308-.19.462-.683.462-1.478v-1.549c0-.023-.012-.207-.035-.552-.024-.344-.119-.623-.285-.836a1.015 1.015 0 0 0-.427-.356 2.23 2.23 0 0 0-.426-.143l.142-.142a.56.56 0 0 1 .213-.143c.214-.118.498-.19.854-.213.356-.024.723-.036 1.103-.036h.426c.403 0 .688.012.854.036.166.024.32.06.462.107.309.07.487.231.534.48.047.25.06.706.036 1.371 0 .19-.006.392-.018.605-.012.214-.018.451-.018.712v.357c-.024.332-.018.664.018.996.035.333.172.582.409.748a.223.223 0 0 0 .089.054.394.394 0 0 0 .124.017c.071 0 .255-.1.552-.302.296-.202.788-.873 1.476-2.012.284-.522.527-1.032.729-1.531.201-.498.314-.771.338-.819a1.04 1.04 0 0 0 .089-.107c.035-.047.077-.095.124-.142.024-.024.06-.036.107-.036H26.645c.19 0 .338.012.445.036.107.024.172.071.196.142.047.119-.006.38-.16.784-.155.403-.6 1.103-1.334 2.1-.119.166-.232.32-.338.463a9.434 9.434 0 0 0-.303.427c-.687.879-1.025 1.46-1.013 1.745.012.285.373.76 1.085 1.424z"/>
</svg>
