<svg xmlns="http://www.w3.org/2000/svg" width="37" height="37" viewBox="0 0 37 37">
    <path fill="none" fill-rule="evenodd" stroke="#34517F"
          d="M21.417 18.197l-4.09-1.922c-.167-.095-.315-.101-.445-.018s-.196.231-.196.445v3.596c0 .19.065.326.196.41.13.083.278.077.444-.018l4.09-1.887c.19-.095.285-.202.285-.32 0-.12-.095-.214-.284-.286zM18.5 1c-2.419 0-4.69.457-6.811 1.37-2.123.915-3.972 2.16-5.55 3.74-1.576 1.578-2.827 3.43-3.752 5.554C1.462 13.788 1 16.06 1 18.482c0 2.421.462 4.694 1.387 6.819.925 2.124 2.176 3.976 3.753 5.554 1.577 1.579 3.426 2.83 5.549 3.756C13.81 35.537 16.08 36 18.5 36c2.419 0 4.69-.463 6.811-1.389 2.123-.925 3.972-2.177 5.55-3.756 1.576-1.578 2.827-3.43 3.752-5.554.925-2.125 1.387-4.398 1.387-6.819 0-2.421-.462-4.694-1.387-6.818-.925-2.125-2.176-3.976-3.753-5.555-1.577-1.578-3.426-2.824-5.549-3.738C23.19 1.457 20.92 1 18.5 1zm0 24.603c-4.482 0-7.12-.397-7.914-1.193-.795-.795-1.192-2.77-1.192-5.928 0-3.157.397-5.127 1.192-5.91.794-.784 3.432-1.175 7.914-1.175 4.482 0 7.12.391 7.914 1.175.795.783 1.192 2.753 1.192 5.91s-.397 5.133-1.192 5.928c-.794.796-3.432 1.193-7.914 1.193z"/>
</svg>
